<svg xmlns="http://www.w3.org/2000/svg" xmlns:xlink="http://www.w3.org/1999/xlink" viewBox="0 0 73 125" version="1.1"
     x="0px" y="0px">
    <title>Apostile blueprint publication information</title>
    <desc>Created with Sketch.</desc>
    <g stroke="none" stroke-width="1" fill="none" fill-rule="evenodd">
        <path d="M0.286077008,17 C0.307836642,16.9618686 0.331180232,16.9248274 0.3548,16.88778 C0.36455,16.8724 0.37293,16.85633 0.38314,16.84118 C0.41148,16.79887 0.44276,16.75905 0.47382,16.719 C0.4881,16.70045 0.5008,16.681 0.51576,16.6629 C0.54999,16.62149 0.58695,16.58281 0.6239,16.54389 C0.63773,16.52941 0.64997,16.5138 0.66403,16.49955 L16.53359,0.66244 C16.54788,0.64819 16.56352,0.63597 16.57803,0.6224 C16.61702,0.58552 16.65579,0.54864 16.69728,0.51448 C16.71541,0.49977 16.73491,0.48688 16.75327,0.47262 C16.7934,0.44163 16.83353,0.41041 16.8757,0.38213 C16.89089,0.37217 16.90698,0.36357 16.92217,0.35385 C16.9479909,0.337451736 16.9738117,0.32118712 17,0.305496399 L17,13 C17,15.209139 15.209139,17 13,17 L0.286077019,17 Z M18,0.004081132 C18.0454176,0.00139377646 18.0909523,0 18.13665,0 L70.73292,0 C71.98503,0 73,1.01312 73,2.26244 L73,97.73756 C73,98.98688 71.98503,100 70.73292,100 L2.26708,100 C1.0152,100 0,98.98688 0,97.73756 L0,18.09955 C0,18.0662734 0.000742188252,18.0330836 0.00220879018,18 L14,18 C16.209139,18 18,16.209139 18,14 L18,0.00408113245 Z M46.5955262,46.3817262 L56.5396091,46.3817262 C57.9748371,46.3817262 59,45.3565613 59,43.9213344 C59,42.4861074 57.9748371,41.358427 56.5396091,41.358427 L46.5955262,41.358427 C45.1602983,41.358427 44.1351354,42.4861074 44.1351354,43.9213344 C44.1351354,45.3565613 45.1602983,46.3817262 46.5955262,46.3817262 Z M46.5955262,36.3351278 L56.5396091,36.3351278 C57.9748371,36.3351278 59,35.3099629 59,33.874736 C59,32.439509 57.9748371,31.3118286 56.5396091,31.3118286 L46.5955262,31.3118286 C45.1602983,31.3118286 44.1351354,32.439509 44.1351354,33.874736 C44.1351354,35.3099629 45.1602983,36.3351278 46.5955262,36.3351278 Z M46.5955262,26.2885294 L56.5396091,26.2885294 C57.9748371,26.2885294 59,25.2633645 59,23.8281375 C59,22.3929106 57.9748371,21.2652302 56.5396091,21.2652302 L46.5955262,21.2652302 C45.1602983,21.2652302 44.1351354,22.3929106 44.1351354,23.8281375 C44.1351354,25.2633645 45.1602983,26.2885294 46.5955262,26.2885294 Z M18.4650507,76.5215214 L33.4324328,76.5215214 C34.8676607,76.5215214 35.8928237,75.4963565 35.8928237,74.0611296 C35.8928237,72.6259027 34.8676607,71.4982222 33.4324328,71.4982222 L18.4650507,71.4982222 C17.0298228,71.4982222 16.0046598,72.6259027 16.0046598,74.0611296 C16.0046598,75.4963565 17.0298228,76.5215214 18.4650507,76.5215214 Z M18.4650507,86.5681198 L33.4324328,86.5681198 C34.8676607,86.5681198 35.8928237,85.5429549 35.8928237,84.107728 C35.8928237,82.6725011 34.8676607,81.5448206 33.4324328,81.5448206 L18.4650507,81.5448206 C17.0298228,81.5448206 16.0046598,82.6725011 16.0046598,84.107728 C16.0046598,85.5429549 17.0298228,86.5681198 18.4650507,86.5681198 Z M18.4650507,56.4283246 L56.5396091,56.4283246 C57.9748371,56.4283246 59,55.4031597 59,53.9679328 C59,52.5327059 57.9748371,51.4050254 56.5396091,51.4050254 L18.4650507,51.4050254 C17.0298228,51.4050254 16.0046598,52.5327059 16.0046598,53.9679328 C16.0046598,55.4031597 17.0298228,56.4283246 18.4650507,56.4283246 Z M18.4650507,66.474923 L56.5396091,66.474923 C57.9748371,66.474923 59,65.4497581 59,64.0145312 C59,62.5793043 57.9748371,61.4516238 56.5396091,61.4516238 L18.4650507,61.4516238 C17.0298228,61.4516238 16.0046598,62.5793043 16.0046598,64.0145312 C16.0046598,65.4497581 17.0298228,66.474923 18.4650507,66.474923 Z M41.572227,76.5215214 L56.5396091,76.5215214 C57.9748371,76.5215214 59,75.4963565 59,74.0611296 C59,72.6259027 57.9748371,71.4982222 56.5396091,71.4982222 L41.572227,71.4982222 C40.1369991,71.4982222 39.1118362,72.6259027 39.1118362,74.0611296 C39.1118362,75.4963565 40.1369991,76.5215214 41.572227,76.5215214 Z M41.572227,86.5681198 L56.5396091,86.5681198 C57.9748371,86.5681198 59,85.5429549 59,84.107728 C59,82.6725011 57.9748371,81.5448206 56.5396091,81.5448206 L41.572227,81.5448206 C40.1369991,81.5448206 39.1118362,82.6725011 39.1118362,84.107728 C39.1118362,85.5429549 40.1369991,86.5681198 41.572227,86.5681198 Z M19.0186394,25.0186394 L36.0978567,25.0186394 L36.0978567,43.1025165 L19.0186394,43.1025165 L19.0186394,25.0186394 Z M18.0139795,21 C16.3494038,21 15,22.3494089 15,24.0139795 L15,44.1071763 C15,45.771747 16.3494038,47.1211559 18.0139795,47.1211559 L37.1025165,47.1211559 C38.7670912,47.1211559 40.116496,45.771747 40.116496,44.1071763 L40.116496,24.0139795 C40.116496,22.3494089 38.7670912,21 37.1025165,21 L18.0139795,21 Z"
              fill="#000000" fill-rule="nonzero"/>
    </g>
</svg>