<svg id="Layer_1" data-name="Layer 1" xmlns="http://www.w3.org/2000/svg" viewBox="0 0 128 128"><defs><style>.cls-1{fill:#3b4551;}</style></defs><title>a</title><path class="cls-1" d="M113.48433,26.83608A45.69975,45.69975,0,0,0,97.05806,7.97466L89.25513,34.0179A13.01438,13.01438,0,0,1,80.40837,56.607a11.13108,11.13108,0,0,1-1.59047-.174c-3.72757,7.70358-13.146,14.98475-24.95,17.54443a5.68214,5.68214,0,0,1-.72061,1.39162.02436.02436,0,0,1-.02487.02487,6.96244,6.96244,0,1,1-1.64006-9.54265l.02487.02487A7.30122,7.30122,0,0,1,53.24667,67.74c9.3438-2.2862,16.77407-8.10128,19.70656-13.49379a12.9873,12.9873,0,0,1,5.56648-23.53347L86.84455,2.90507A45.40765,45.40765,0,0,0,71.63608.27092,46.164,46.164,0,0,0,27.278,33.67c-2.13726,7.38067-4.69678,15.308-8.94626,21.74416C17.11414,57.27791,8.44135,65.62778,10.9264,68.088A12.63576,12.63576,0,0,0,16.965,71.19426c.42242.09935-2.01288,12.54946-2.1371,13.66776-.62126,5.9889-2.2862,12.127,3.35475,15.82974,5.61623,3.7027,12.475,5.74045,18.91117,7.43027.32307.07462.62126.1491.91961.22372v19.38334H82.74432V116.97879a22.67213,22.67213,0,0,1,8.35442-17.5649c1.46245-1.19277,2.619-2.15849,2.92764-2.47458,12.40036-12.7483,23.13578-31.83345,23.48372-50.49617A43.6118,43.6118,0,0,0,113.48433,26.83608Z" id="id_101"></path></svg>