<svg xmlns="http://www.w3.org/2000/svg" version="1.1" xmlns:xlink="http://www.w3.org/1999/xlink" xmlns:svgjs="http://svgjs.dev/svgjs" width="2000" height="1500" viewBox="0 0 2000 1500"><rect width="2000" height="1500" fill="#f9e17e"></rect><g transform="matrix(0.75,0,0,0.75,249.090909090909,483.1729144864671)"><svg viewBox="0 0 396 141" data-background-color="#f9e17e" preserveAspectRatio="xMidYMid meet" height="712" width="2000" xmlns="http://www.w3.org/2000/svg" xmlns:xlink="http://www.w3.org/1999/xlink"><g id="tight-bounds" transform="matrix(1,0,0,1,0.2400000000000091,-0.04565719586491923)"><svg viewBox="0 0 395.52 141.09131439172987" height="141.09131439172987" width="395.52"><g><svg viewBox="0 0 685.212211141374 244.43135999999998" height="141.09131439172987" width="395.52"><g transform="matrix(1,0,0,1,0,26.354916641221365)"><svg viewBox="0 0 395.52 191.72152671755725" height="191.72152671755725" width="395.52"><g id="textblocktransform"><svg viewBox="0 0 395.52 191.72152671755725" height="191.72152671755725" width="395.52" id="textblock"><g><svg viewBox="0 0 395.52 191.72152671755725" height="191.72152671755725" width="395.52"><g transform="matrix(1,0,0,1,0,0)"><svg width="395.52" viewBox="1.54 -39.6 83.14999999999999 40.31" height="191.72152671755725" data-palette-color="#454545"><path d="M19.48 0L19.48 0 1.54 0 1.54-8.59 5.44-8.59 5.44-30.25 1.54-30.25 1.54-38.84 19.53-38.84Q30.13-38.84 35.75-33.95 41.38-29.05 41.38-19.46L41.38-19.46Q41.38-10.11 35.79-5.05 30.2 0 19.48 0ZM19.48-30.25L17.94-30.25 17.94-8.59 19.48-8.59Q22.22-8.59 23.95-10 25.68-11.4 26.51-13.87 27.34-16.33 27.34-19.46L27.34-19.46Q27.34-24.24 25.49-27.25 23.63-30.25 19.48-30.25L19.48-30.25ZM65.13 0.71L65.13 0.71Q59.06 0.71 54.61-1.9L54.61-1.9Q50.19-4.52 47.89-9.08 45.58-13.65 45.58-19.51L45.58-19.51Q45.58-25.59 47.87-30.1L47.87-30.1Q50.17-34.64 54.58-37.12 58.98-39.6 65.13-39.6L65.13-39.6Q71.26-39.6 75.68-37.13L75.68-37.13Q80.08-34.64 82.38-30.1 84.69-25.56 84.69-19.51L84.69-19.51Q84.69-13.65 82.39-9.08L82.39-9.08Q80.1-4.52 75.67-1.9 71.24 0.71 65.13 0.71ZM65.13-7.96L65.13-7.96Q67.77-7.96 69.17-11.16 70.58-14.36 70.58-19.7L70.58-19.7Q70.58-24.9 69.22-27.93 67.87-30.96 65.13-30.96L65.13-30.96Q62.38-30.96 61.03-27.93 59.69-24.9 59.69-19.7L59.69-19.7Q59.69-14.36 61.08-11.16 62.47-7.96 65.13-7.96Z" opacity="1" transform="matrix(1,0,0,1,0,0)" fill="#454545" class="wordmark-text-0" data-fill-palette-color="primary" id="text-0"></path></svg></g></svg></g></svg></g></svg></g><g transform="matrix(1,0,0,1,440.780851141374,0)"><svg viewBox="0 0 244.43135999999998 244.43135999999998" height="244.43135999999998" width="244.43135999999998"><g><svg xmlns="http://www.w3.org/2000/svg" xmlns:xlink="http://www.w3.org/1999/xlink" version="1.0" x="0" y="0" viewBox="10 10 80 80" enable-background="new 0 0 100 100" xml:space="preserve" height="244.43135999999998" width="244.43135999999998" class="icon-icon-0" data-fill-palette-color="accent" id="icon-0"><path d="M83.333 10H16.667C13.001 10 10 13.001 10 16.667v66.666C10 86.999 13.001 90 16.667 90h66.666C86.999 90 90 86.999 90 83.333V16.667C90 13.001 86.999 10 83.333 10zM83.333 83.333H16.667V16.667h66.666V83.333z" fill="#454545" data-fill-palette-color="accent"></path><path d="M40 23.333H30l-6.667 33.334H30L31.335 50h7.33L40 56.667h6.667L40 23.333zM32.666 43.333L35 31.667l2.334 11.666H32.666z" fill="#454545" data-fill-palette-color="accent"></path><path d="M76.667 56.667V50h-8.334v-6.667h-6.666V50h-8.334v6.667h13.334C66.667 64.03 60.696 70 53.333 70v6.667c5.173 0 9.87-1.979 13.418-5.202l5.202 5.202 4.714-4.714-5.749-5.752c1.54-2.832 2.415-6.081 2.415-9.534H76.667z" fill="#454545" data-fill-palette-color="accent"></path></svg></g></svg></g></svg></g><defs></defs></svg><rect width="395.52" height="141.09131439172987" fill="none" stroke="none" visibility="hidden"></rect></g></svg></g></svg>