<svg xmlns="http://www.w3.org/2000/svg" version="1.1" viewBox="-5.0 -10.0 110.0 135.0">
    <path d="m49.992 0c-0.41406 0-0.8125 0.16406-1.1055 0.45703s-0.45703 0.69141-0.45703 1.1055v3.3789c-21.668 0.73828-39.371 16.762-42.652 37.672-0.003906 0.050781-0.003906 0.10156 0 0.15625-0.007813 0.070313-0.003906 0.14453 0 0.21484 0.007812 0.09375 0.027344 0.18359 0.050781 0.27344 0.003906 0.015626 0.007813 0.027344 0.015625 0.042969 0.14844 0.48828 0.52734 0.87109 1.0117 1.0273 0.074219 0.03125 0.14844 0.054687 0.22656 0.074219 0.54688 0.078125 1.0938-0.13672 1.4414-0.57031 3.2344-3.875 8-6.1094 13.023-6.1094 5 0 9.7383 2.2148 12.973 6.0547 0 0.003906 0.003907 0.007812 0.007813 0.011718 0.007812 0.011719 0.019531 0.023438 0.03125 0.035157 0.007812 0.007812 0.019531 0.019531 0.023437 0.027343 0.015625 0.015626 0.035157 0.035157 0.054688 0.054688 0.003906 0 0.003906 0 0.007812 0.003906 0.039063 0.046875 0.082031 0.089844 0.12891 0.13281 0.007812 0.007812 0.015624 0.011719 0.023437 0.019531 0.011719 0.007812 0.023437 0.015625 0.035156 0.023438 0.066407 0.050781 0.13281 0.097656 0.20703 0.13672 0.003907 0.003906 0.007813 0.007813 0.015626 0.007813v0.003906c0.03125 0.011719 0.0625 0.027344 0.097656 0.035156 0.054687 0.03125 0.11328 0.054688 0.17578 0.074219 0.011719 0.003906 0.023437 0.003906 0.035156 0.007812h0.007813c0.011718 0.003907 0.023437 0.007813 0.035156 0.007813 0.074219 0.019531 0.15234 0.035156 0.23047 0.042969h0.066406 0.050781c0.09375 0.003906 0.1875-0.003906 0.28125-0.019532 0.011719-0.003906 0.023438-0.003906 0.035156-0.003906 0.027344-0.003906 0.050782-0.011718 0.074219-0.015625 0.039063-0.011719 0.074219-0.023437 0.11328-0.035156 0.066407-0.019531 0.13281-0.046875 0.19922-0.078125 0.019531-0.011719 0.039063-0.019531 0.054688-0.03125 0.19531-0.10156 0.36328-0.24609 0.49609-0.42188 3.2344-3.8516 7.9766-6.0703 12.98-6.0703 5.0234 0 9.7852 2.2383 13.02 6.1133l0.003907 0.003906c0.03125 0.035156 0.066406 0.066406 0.10156 0.10156 0.046875 0.050782 0.097657 0.097657 0.15234 0.14453 0.023437 0.015625 0.046875 0.03125 0.070313 0.046875 0.070312 0.046875 0.14453 0.09375 0.22266 0.12891 0.023437 0.007813 0.046875 0.019531 0.070312 0.027344 0.085938 0.035156 0.17578 0.0625 0.26953 0.085937 0.003906 0 0.011718 0.003906 0.015624 0.003906 0.007813 0 0.015626 0 0.023438 0.003907 0.097656 0.015625 0.19922 0.023437 0.29688 0.023437h0.050781 0.03125c0.015625 0 0.027344 0 0.039063-0.003906 0.078125-0.007812 0.15234-0.019531 0.22266-0.039062 0.015625-0.003907 0.027344-0.003907 0.039063-0.007813 0.011718-0.003906 0.027343-0.007813 0.042968-0.007813 0.085938-0.027343 0.16797-0.0625 0.25-0.10547h0.007813c0.003906-0.003906 0.011719-0.003906 0.015625-0.007813 0.003906 0 0.003906-0.003906 0.007812-0.003906 0.054688-0.03125 0.10547-0.066406 0.15625-0.10156 0.035156-0.023437 0.074219-0.050781 0.10938-0.078124 0.003907-0.003907 0.007813-0.003907 0.011719-0.007813 0.007812-0.007813 0.015625-0.015625 0.023438-0.023437 0.054687-0.046876 0.10547-0.097657 0.15234-0.15234 0.003907-0.003906 0.007813-0.011719 0.011719-0.015625 3.2344-3.8828 8.0039-6.1211 13.031-6.1211 5.0312 0 9.8008 2.2422 13.035 6.1289l0.039063 0.039063c0.035156 0.035156 0.070312 0.070312 0.10547 0.10547 0.097656 0.09375 0.21094 0.17188 0.32812 0.23828h0.003907c0.003906 0.003906 0.011719 0.003906 0.019531 0.007812 0.125 0.0625 0.25781 0.10547 0.39844 0.12891 0.027343 0.007813 0.058593 0.011719 0.089843 0.019532 0.14062 0.019531 0.28516 0.019531 0.42578 0h0.023438c0.074219-0.011719 0.14453-0.03125 0.21484-0.050782 0.007812-0.003906 0.015625-0.007812 0.023437-0.011718 0.73047-0.23828 1.1836-0.96875 1.0625-1.7266-3.2812-20.91-20.984-36.934-42.652-37.672v-3.3789c0-0.41406-0.16406-0.8125-0.45703-1.1055-0.29297-0.29297-0.69141-0.45703-1.1055-0.45703zm0 8.0391c1.5117 0 3.0039 0.082032 4.4727 0.23828 9.1875 10.707 9.1445 24.988 8.6016 31.184-3.6172-3.1172-8.2461-4.8711-13.078-4.8711-4.8281 0-9.4531 1.75-13.07 4.8633-0.54297-6.1953-0.58594-20.473 8.5977-31.176 1.4688-0.15625 2.9609-0.23828 4.4766-0.23828zm-9 0.96484c-7.4375 10.605-7.7539 23.176-7.2891 29.703-3.4648-2.6523-7.7266-4.125-12.156-4.125-4.207 0-8.2656 1.332-11.637 3.7383 4.1172-14.684 16.043-26.031 31.082-29.312zm17.996 0c15.047 3.2812 26.984 14.637 31.094 29.336-3.3711-2.4102-7.4297-3.7461-11.641-3.7461-4.4258 0-8.6914 1.4727-12.156 4.1211 0.46875-6.5273 0.14844-19.102-7.293-29.711zm-9.1914 36.695c-0.12891 0.019531-0.25391 0.050781-0.375 0.097656l-20.23 7.9023v-0.003907c-0.59766 0.23438-0.99219 0.8125-0.99219 1.457v22.879c0 6.5859 5.5469 11.91 10.754 15.711 5.2109 3.8008 10.395 6.125 10.395 6.125v-0.003907c0.40625 0.18359 0.875 0.18359 1.2852 0 0 0 5.1797-2.3242 10.391-6.125 5.2109-3.8008 10.754-9.125 10.754-15.711v-22.879l0.003906 0.003906c0-0.64453-0.39453-1.2227-0.99219-1.457l-20.23-7.9023v0.003906c-0.24219-0.09375-0.50391-0.12891-0.76172-0.097656zm0.19531 3.2266 18.664 7.2891v21.812c0 4.7227-4.5664 9.6055-9.4688 13.184-4.582 3.3438-8.6094 5.1523-9.1914 5.4219-0.58203-0.26953-4.6133-2.0781-9.1992-5.4219-4.9023-3.5781-9.4688-8.4609-9.4688-13.184v-21.812zm10.215 15.602c-0.46094-0.027344-0.91016 0.14453-1.2305 0.48047l-10.168 10.59-5.8242-6.0625c-0.28516-0.30078-0.67969-0.47266-1.0938-0.48047-0.41406-0.011719-0.81641 0.14453-1.1133 0.43359-0.62109 0.59766-0.64062 1.5859-0.039063 2.207l6.9492 7.2422h-0.003906c0.29688 0.30859 0.70312 0.48047 1.1289 0.48047s0.83203-0.17188 1.1289-0.48047l11.293-11.77h-0.003906c0.59766-0.62109 0.57812-1.6094-0.042969-2.207-0.26562-0.25391-0.61328-0.40625-0.98047-0.43359z"/>
</svg>