<svg xmlns="http://www.w3.org/2000/svg" version="1.1" viewBox="-5.0 -10.0 110.0 135.0">
    <path d="m49.805 0.011719c-0.125 0.015625-0.25391 0.046875-0.37109 0.09375l-17.297 6.7422c-0.60156 0.23438-1 0.8125-1 1.4609v19.535c0 2.3555 0.80469 4.5078 2.0625 6.4609h-2.9922c-3.0234 0-5.7031 1.9883-6.6484 4.8828l-7.1484 21.996c-2.4531 0.85547-4.2656 3.0391-4.2656 5.6914v21.062c0 2.0977 1.5117 3.8711 3.4961 4.2852v2.832c0 2.7305 2.2812 4.9492 5.0156 4.9492h8.7305c2.7344 0 5.0156-2.2188 5.0156-4.9492v-2.7383h31.191v2.7383c0 2.7305 2.2773 4.9492 5.0117 4.9492h8.7383c2.7344 0 5.0117-2.2188 5.0117-4.9492v-2.832c1.9844-0.41406 3.4961-2.1914 3.4961-4.2852v-21.062c0-2.6484-1.8086-4.832-4.2578-5.6875l-7.1484-22v-0.003906h-0.007812c-0.94531-2.8945-3.625-4.8828-6.6484-4.8828h-2.9844c1.2578-1.9492 2.0625-4.1055 2.0625-6.4609v-19.531c0-0.64844-0.39453-1.2266-0.99609-1.4609l-17.305-6.7422c-0.24219-0.09375-0.50391-0.125-0.76172-0.09375zm0.19531 3.2266 15.738 6.1367v18.465c0 3.8945-3.8359 8.0312-8.0078 11.066-3.8516 2.8047-7.1602 4.293-7.7305 4.5547-0.56641-0.26172-3.8789-1.7461-7.7305-4.5508-4.1719-3.0391-8.0039-7.1758-8.0039-11.07v-18.465zm8.7578 12.848h0.003907c-0.46094-0.03125-0.91406 0.14062-1.2344 0.47266l-8.5312 8.8789-4.8164-5.0117c-0.28906-0.30078-0.68359-0.47266-1.0977-0.48047-0.41406-0.007812-0.81641 0.15234-1.1133 0.4375-0.62109 0.59766-0.64062 1.5859-0.046875 2.2109l5.9453 6.1836 0.003906-0.003906c0.29297 0.30859 0.69922 0.48047 1.125 0.48047 0.42188 0 0.82812-0.17188 1.1211-0.48047l9.6602-10.047v0.003907c0.28906-0.30078 0.44531-0.69922 0.4375-1.1133-0.007813-0.41406-0.17969-0.80859-0.47656-1.0977-0.26562-0.25391-0.60938-0.41016-0.97656-0.43359zm-28.547 21.168h5.3438c1.4922 1.5703 3.207 2.9688 4.875 4.1797 4.4805 3.2617 8.9336 5.2539 8.9336 5.2539 0.40625 0.18359 0.875 0.18359 1.2812 0 0 0 4.4492-1.9922 8.9258-5.2539 1.668-1.2148 3.3828-2.6094 4.875-4.1797h5.3438c1.7344 0 3.2852 1.125 3.8477 2.8477l6.7266 20.691-60.723 0.003906 6.7227-20.691c0.5625-1.7227 2.1133-2.8477 3.8477-2.8477zm-11.512 26.66h62.602c2.0039 0 3.4258 1.3789 3.4258 2.957v21.062c0 0.72266-0.53125 1.2578-1.2539 1.2578h-66.949c-0.72266 0-1.25-0.53516-1.25-1.2578v-21.062c0-1.5781 1.4219-2.957 3.4258-2.957zm5.3203 5.7148h-0.11719-0.007813c-1.9688 0.066406-3.5586 1.7109-3.5586 3.6797v6.4883c0 2.0156 1.6641 3.6836 3.6797 3.6875h10.613c2.0156 0 3.6797-1.6719 3.6797-3.6875v-4.4648-0.003906c0-1.7109-1.1992-3.207-2.8672-3.5859-0.015625-0.003907-0.035156-0.007813-0.050781-0.011719l-10.555-2.0117c-0.26563-0.0625-0.54297-0.089844-0.81641-0.089844zm51.969 0c-0.27734 0-0.55469 0.027344-0.82422 0.089844l-10.555 2.0117h0.003906c-0.019531 0.003906-0.035156 0.007812-0.054687 0.007812-1.668 0.37891-2.8672 1.8789-2.8672 3.5859v0.003906 0.003906 4.4648c0 2.0156 1.668 3.6875 3.6836 3.6875h10.605c2.0195 0 3.6836-1.668 3.6836-3.6875v-6.4883c0-1.9688-1.5938-3.6172-3.5664-3.6797h-0.11719zm-51.988 3.1211c0.046875 0 0.097656 0.007812 0.14453 0.015625 0.015625 0.003906 0.035157 0.007813 0.050781 0.007813l10.555 2.0117c0.26172 0.058594 0.43359 0.27734 0.43359 0.54688v4.4648c0 0.32812-0.22656 0.55859-0.55469 0.55859h-10.613c-0.32422 0-0.55859-0.23047-0.55859-0.55859v-6.4883c0-0.32031 0.22656-0.55078 0.54297-0.55859zm51.965 0h0.035156c0.31641 0.011719 0.54297 0.23828 0.54297 0.55859v6.4883c0 0.32812-0.23438 0.55859-0.55859 0.55859h-10.605c-0.32422 0-0.55859-0.23047-0.55859-0.55859v-4.4648c0-0.26953 0.17188-0.48828 0.43359-0.54688l10.555-2.0117h-0.003906c0.019531 0 0.035156-0.003907 0.054687-0.007813 0.035156-0.007813 0.070313-0.015625 0.10547-0.015625zm-57.195 19.562h12.516v2.7383c0 1.0195-0.80078 1.8242-1.8906 1.8242h-8.7305c-1.0898 0-1.8906-0.80469-1.8906-1.8242zm49.949 0h12.52v2.7383c0 1.0195-0.80078 1.8242-1.8906 1.8242h-8.7383c-1.0898 0-1.8906-0.80469-1.8906-1.8242z"/>

</svg>