<svg xmlns="http://www.w3.org/2000/svg" version="1.1" viewBox="-5.0 -10.0 110.0 135.0">
    <path d="m50.004 0c-0.83203 0-1.5039 0.67188-1.5039 1.5039v3.7969c-1.4258 0.042969-2.8359 0.14844-4.2266 0.3125-0.003907 0.003907-0.007813 0.003907-0.011719 0.003907-21.301 2.5234-38.258 18.938-41.562 39.984v0.023438c-0.015625 0.12109-0.015625 0.24219 0 0.36328 0.007812 0.070313 0.023437 0.14062 0.042969 0.20703 0.007812 0.039063 0.019531 0.074219 0.03125 0.10938 0.17578 0.53125 0.62891 0.92187 1.1797 1.0156 0.52734 0.078126 1.0547-0.12891 1.3867-0.54297 3.5039-4.207 8.6719-6.6367 14.113-6.6367 5.4453 0 10.613 2.4297 14.121 6.6406 0.03125 0.035156 0.0625 0.066406 0.097656 0.097656 0.019531 0.019532 0.039063 0.039063 0.058594 0.058594 0.007812 0.007812 0.019531 0.019531 0.03125 0.027344 0.003906 0.003906 0.007812 0.007812 0.011719 0.011718 0 0 0.003906 0.003907 0.007812 0.003907 0.054688 0.042969 0.11328 0.082031 0.17188 0.11719 0.023437 0.015625 0.042969 0.03125 0.066406 0.042969 0.20312 0.10938 0.42969 0.17188 0.66016 0.17578h0.019531c0.10156 0.003906 0.20312-0.003906 0.30078-0.023437h0.019531c0.023438-0.003907 0.042969-0.011719 0.066407-0.015625 0.054687-0.015625 0.10937-0.03125 0.16406-0.050782 0.046875-0.015624 0.097656-0.035156 0.14062-0.058593 0.050781-0.023438 0.097656-0.050781 0.14453-0.082031 0.03125-0.019532 0.058594-0.039063 0.089844-0.058594 0.023438-0.015625 0.050781-0.035156 0.074219-0.050782 0.089843-0.078124 0.17578-0.16406 0.24609-0.26172 3.5039-4.168 8.6406-6.5703 14.059-6.5703 5.4453 0 10.613 2.4297 14.121 6.6406l-0.003906 0.003906c0.03125 0.03125 0.0625 0.066407 0.097656 0.09375 0.03125 0.035157 0.0625 0.066407 0.097656 0.097657 0 0.003906 0.003906 0.003906 0.007813 0.007812 0.015625 0.011719 0.027343 0.019531 0.042969 0.03125 0.019531 0.015625 0.039062 0.027344 0.0625 0.039063 0.015624 0.011718 0.03125 0.023437 0.046874 0.03125 0.027344 0.023437 0.058594 0.042968 0.089844 0.058594 0.023438 0.011718 0.050782 0.023437 0.074219 0.035156 0.03125 0.011718 0.0625 0.027344 0.089844 0.039062 0.039062 0.015625 0.074219 0.027344 0.10938 0.039063 0.027344 0.007812 0.054687 0.015625 0.082031 0.019531 0.023437 0.007812 0.046875 0.015625 0.070313 0.023438 0.019531 0 0.042968 0 0.0625 0.003906 0.027343 0.003906 0.054687 0.007812 0.078124 0.011718 0.039063 0.003907 0.078126 0.003907 0.11719 0.003907h0.11719c0.019531 0 0.039062 0 0.054687-0.003907 0.050781-0.003906 0.097656-0.015624 0.14453-0.027343 0.039063-0.003907 0.078125-0.011719 0.11719-0.019531 0.011718-0.003907 0.019531-0.007813 0.03125-0.007813 0.042968-0.015625 0.082031-0.03125 0.12109-0.050781 0.050781-0.019532 0.10156-0.039063 0.15234-0.0625 0.042969-0.027344 0.085938-0.054688 0.125-0.082032 0.039063-0.027343 0.082031-0.054687 0.11719-0.082031 0.003906-0.003906 0.007812-0.003906 0.011719-0.007812 0.070312-0.058594 0.13281-0.12109 0.19141-0.19141l0.003906-0.003906c0.007812-0.011718 0.019531-0.023437 0.027344-0.035156 3.5039-4.1875 8.6562-6.6016 14.082-6.6016 5.4453 0 10.609 2.4297 14.113 6.6406l0.003906 0.003907c0.019532 0.023437 0.042969 0.042969 0.066407 0.066406 0.023437 0.023437 0.042969 0.046875 0.070312 0.066406 0.09375 0.09375 0.20312 0.17578 0.32422 0.23828 0.019531 0.007813 0.042969 0.019532 0.066406 0.027344 0.10547 0.046875 0.21484 0.085938 0.32812 0.10938 0.039063 0.007813 0.074219 0.011719 0.11328 0.019531 0.125 0.015626 0.25391 0.015626 0.38281 0h0.042969c0.26172-0.042968 0.50781-0.15625 0.71484-0.32812 0.003906 0 0.007812-0.003907 0.011718-0.003907 0.011719-0.011719 0.023438-0.019531 0.03125-0.027343 0.019532-0.015626 0.035156-0.03125 0.050782-0.046876 0.011718-0.011718 0.023437-0.023437 0.03125-0.035156 0.015624-0.011718 0.027343-0.027344 0.042968-0.039062l0.011719-0.011719c0.019531-0.023437 0.039063-0.046875 0.058594-0.070313 0.019531-0.027343 0.042969-0.058593 0.0625-0.089843 0.019531-0.027344 0.039062-0.058594 0.054687-0.089844 0.003906-0.007813 0.011719-0.015625 0.015625-0.023437 0.023438-0.042969 0.042969-0.089844 0.0625-0.13281 0.011719-0.023437 0.019531-0.042969 0.03125-0.066406 0.003907-0.019531 0.011719-0.035157 0.019531-0.054688 0.011719-0.042969 0.023438-0.085937 0.035157-0.12891 0.003906-0.019531 0.007812-0.039063 0.015625-0.058594 0.03125-0.16797 0.035156-0.34375 0.007812-0.51172-0.003906-0.019531-0.007812-0.039062-0.007812-0.054687v-0.003906c-0.003906 0-0.003906-0.003907-0.003906-0.007813-3.5508-22.391-22.555-39.523-45.789-40.234v-3.7969c0-0.39844-0.16016-0.78125-0.44141-1.0625s-0.66406-0.44141-1.0625-0.44141zm0 8.2852c1.6523 0 3.2852 0.089844 4.8945 0.26172 10.125 11.754 9.9023 27.512 9.293 34.004-3.8906-3.457-8.9297-5.4102-14.191-5.4102-5.2578 0-10.289 1.9492-14.18 5.4023-0.61328-6.4883-0.83594-22.242 9.2891-33.996 1.6094-0.17188 3.2422-0.26172 4.8984-0.26172zm9.2539 0.94531c16.598 3.4453 29.754 15.98 34.094 32.203-3.6641-2.75-8.1484-4.2773-12.805-4.2773-4.8516 0-9.5156 1.6562-13.262 4.625 0.54297-6.9297 0.33984-20.91-8.0273-32.551zm-18.516 0.003906c-8.3594 11.633-8.5664 25.602-8.0234 32.531-3.7461-2.9688-8.4102-4.6289-13.262-4.6289-4.6523 0-9.1289 1.5273-12.793 4.2734 4.3477-16.207 17.492-28.73 34.074-32.176zm9.2578 37.934c-5.8398 0-10.605 4.7656-10.605 10.609 0 3.5977 1.8086 6.7852 4.5625 8.707-5.3633 2.0391-9.4297 6.707-10.625 12.434-1.957-3.082-4.8828-5.4922-8.3438-6.8086 2.7539-1.9219 4.5625-5.1094 4.5625-8.7031 0-5.8398-4.7656-10.609-10.605-10.609-5.8398 0-10.609 4.7695-10.609 10.609 0 3.5977 1.8086 6.7852 4.5625 8.7031-6.4219 2.4375-10.984 8.6484-10.984 15.93v10.465l-0.015624-0.007812c0 0.39844 0.16016 0.78125 0.44141 1.0625 0.28125 0.28516 0.66406 0.44141 1.0625 0.44141h93.195c0.39844 0 0.78125-0.15625 1.0625-0.44141 0.28125-0.28125 0.44141-0.66406 0.44141-1.0625v-10.465c0-7.2812-4.5625-13.492-10.984-15.93 2.7539-1.9219 4.5625-5.1094 4.5625-8.7031 0-5.8398-4.7695-10.609-10.609-10.609-5.8398 0-10.609 4.7695-10.609 10.609 0 3.5977 1.8086 6.7852 4.5625 8.7031-3.4648 1.3125-6.3867 3.7227-8.3438 6.8086-1.1953-5.7266-5.2617-10.395-10.629-12.434 2.7539-1.9219 4.5664-5.1094 4.5664-8.707 0-5.8398-4.7734-10.609-10.613-10.609zm0 3.0078c4.2148 0 7.6055 3.3867 7.6055 7.6016s-3.3906 7.6016-7.6055 7.6016-7.6016-3.3867-7.6016-7.6016 3.3828-7.6016 7.6016-7.6016zm-31.066 5.6211c4.2148 0 7.6016 3.3867 7.6016 7.6016 0 4.2148-3.3828 7.6016-7.6016 7.6016-4.2148 0-7.6016-3.3867-7.6016-7.6016 0-4.2148 3.3828-7.6016 7.6016-7.6016zm62.133 0c4.2148 0 7.6016 3.3867 7.6016 7.6016 0 4.2148-3.3828 7.6016-7.6016 7.6016-4.2148 0-7.6055-3.3867-7.6055-7.6016 0-4.2148 3.3906-7.6016 7.6055-7.6016zm-31.07 12.582c7.7969 0 14.031 6.2344 14.031 14.031v14.582h-28.059v-14.582c0-7.7969 6.2266-14.031 14.027-14.031zm-31.062 5.625c7.7969 0 14.031 6.2305 14.031 14.027v8.9609h-28.059v-8.9609c0-7.7969 6.2266-14.027 14.027-14.027zm62.133 0c7.7969 0 14.031 6.2305 14.031 14.027v8.9609h-28.062v-8.9609c0-7.7969 6.2305-14.027 14.031-14.027z"/>

</svg>