<svg xmlns="http://www.w3.org/2000/svg" version="1.1" viewBox="-5.0 -10.0 110.0 135.0">
    <path d="m77.352 7.9219c-0.12891 0.015625-0.25781 0.050781-0.37891 0.097656l-20.895 8.207c-0.59766 0.23438-0.98828 0.80859-0.98828 1.4492v1.6367l-11.379-8.0664h-0.003907c-0.53906-0.38281-1.2617-0.38281-1.8047 0l-41.246 29.238c-0.41016 0.29688-0.65625 0.76953-0.65625 1.2773v12.352c0 0.58594 0.32422 1.1211 0.84375 1.3906 0.52344 0.26953 1.1484 0.22656 1.625-0.11328l4.043-2.8672v36.449h-3.1445v-0.003906c-0.85938 0-1.5586 0.69531-1.5625 1.5586 0 0.41406 0.16406 0.8125 0.45703 1.1055 0.29297 0.29297 0.69141 0.45703 1.1055 0.45703h78.875c0.41797 0 0.8125-0.16406 1.1055-0.45703 0.29688-0.29297 0.46094-0.69141 0.46094-1.1055-0.003906-0.86328-0.70312-1.5586-1.5664-1.5586h-3.1367v-25.355c1.7539-0.86328 5.7734-2.9609 9.8086-5.918 5.375-3.9414 11.082-9.4609 11.082-16.258l0.003906-23.762c0-0.64062-0.39453-1.2148-0.99219-1.4492l-20.895-8.207c-0.24219-0.097656-0.50391-0.12891-0.76172-0.097656zm0.19531 3.2344 19.332 7.5898v22.695c0 4.9453-4.7383 10.02-9.8086 13.738-4.75 3.4805-8.9336 5.3789-9.5195 5.6523-0.58594-0.26953-4.7734-2.168-9.5195-5.6523-5.0703-3.7188-9.8086-8.793-9.8086-13.738v-6.7383l-0.011718-0.003906c0.003906-0.015625 0.003906-0.035157 0-0.054688v-12.293c0.003906-0.015624 0.003906-0.035156 0-0.054687v-3.5586zm-34.734 3.2812 12.277 8.7031v8.5234l-11.379-8.0625h-0.003907c-0.53906-0.38281-1.2617-0.38281-1.8047 0l-38.777 27.492v-8.5234zm0 12.352 12.277 8.7031v5.9414c0 6.7969 5.707 12.312 11.082 16.258 4.0352 2.9609 8.0547 5.0586 9.8086 5.918v25.355h-18.211v-32.52c0-0.86328-0.69922-1.5625-1.5625-1.5625h-26.801c-0.86328 0-1.5625 0.69922-1.5625 1.5625v32.527h-18.211v-38.66zm45.145 0.6875h-0.003906c-0.41016 0.007813-0.80469 0.17969-1.0898 0.47656l-10.535 11.039-6.0508-6.3359c-0.28516-0.30078-0.67969-0.47656-1.0938-0.48438-0.41406-0.007813-0.81641 0.14453-1.1172 0.43359-0.62109 0.59375-0.64453 1.582-0.050781 2.207l7.1797 7.5195c0.29688 0.30859 0.70313 0.48438 1.1328 0.48438 0.42578 0 0.83203-0.17578 1.1289-0.48438l11.668-12.219c0.28516-0.30078 0.44141-0.70312 0.42969-1.1172-0.007813-0.41406-0.18359-0.80859-0.48438-1.0938-0.30078-0.28516-0.70312-0.4375-1.1172-0.42578zm-56.988 30.531h23.672v30.965h-23.672z"/>
</svg>