<svg xmlns="http://www.w3.org/2000/svg" version="1.1" viewBox="-5.0 -10.0 110.0 135.0">
    <path d="m59.254 3.0391c-0.32422 0-0.63672 0.10156-0.90234 0.28906l-38.148 26.965c-0.41016 0.29297-0.65625 0.76953-0.65625 1.2734v11.391c0 0.58594 0.32422 1.1211 0.83984 1.3906 0.51953 0.26953 1.1445 0.22656 1.6211-0.10938l3.5508-2.5117v27.719h-1.7812 0.003906c-0.12109 0-0.23828 0.011719-0.35156 0.039063-0.011719 0-0.023438 0.003906-0.035157 0.007813-0.097656 0.027343-0.19531 0.058593-0.28516 0.10156-0.019531 0.011719-0.039063 0.019531-0.058594 0.03125-0.082031 0.039062-0.15625 0.089844-0.22656 0.14453-0.023438 0.015625-0.042969 0.03125-0.0625 0.046875-0.035157 0.027344-0.070313 0.054688-0.10156 0.085938l-22.203 22.25v-0.003906c-0.29297 0.29297-0.45703 0.69531-0.45703 1.1094 0 0.41406 0.16797 0.8125 0.46484 1.1055 0.60938 0.60938 1.6016 0.60547 2.207-0.003906l21.742-21.789h36.098c2.5625 0 4.5664 1.9961 4.5664 4.5352 0 2.5352-2.0039 4.5391-4.5664 4.5391h-13.305l-0.003906-0.003906c-0.41406 0-0.8125 0.16406-1.1055 0.45703-0.29297 0.29297-0.45703 0.69141-0.45703 1.1055 0.003906 0.86328 0.70312 1.5586 1.5625 1.5586h22.688c0.019531 0 0.039063-0.003907 0.058594-0.003907 0.0625-0.003906 0.125-0.007812 0.1875-0.019531 0.035156-0.003906 0.066406-0.011719 0.10156-0.019531 0.15234-0.035156 0.29688-0.089844 0.43359-0.16406v-0.003907c0.054687-0.03125 0.10156-0.066406 0.15234-0.10547 0.035156-0.023437 0.070312-0.050781 0.10156-0.082031 0.023438-0.015625 0.046875-0.03125 0.066407-0.050781l18.031-17.902c0.69922-0.69531 1.5703-1.1133 2.4727-1.2656h0.003906c0.066406-0.003906 0.13672-0.015625 0.20312-0.027343 1.3594-0.16797 2.7852 0.26953 3.8438 1.3125 1.8242 1.793 1.8164 4.5625 0.007813 6.3555l-21.234 21.051h-40.91v-0.003907c-0.41406 0-0.8125 0.16797-1.1055 0.46094-0.29297 0.29297-0.45703 0.6875-0.45703 1.1016 0 0.41797 0.16406 0.8125 0.45703 1.1055 0.29297 0.29688 0.69141 0.46094 1.1055 0.46094h41.551c0.019531 0 0.039062-0.003907 0.058593-0.003907 0.0625 0 0.125-0.007812 0.1875-0.015625 0.054688-0.011718 0.10547-0.023437 0.16016-0.039062 0.058593-0.015625 0.11719-0.03125 0.17187-0.054688 0.066407-0.027344 0.13281-0.058594 0.19531-0.09375 0.03125-0.019531 0.0625-0.039062 0.09375-0.058594 0.074219-0.046874 0.14062-0.10156 0.20312-0.16406 0.011719-0.007812 0.019531-0.011719 0.03125-0.019531l21.691-21.504c2.9961-2.9688 3.0039-7.8359-0.011718-10.801-1.3398-1.3164-3.0469-2.0508-4.7969-2.2031l-0.003906-20.281 3.5586 2.5156c0.47656 0.33594 1.1055 0.37891 1.6211 0.10938 0.51953-0.26953 0.84375-0.80469 0.84375-1.3906v-11.391c-0.003906-0.50781-0.25-0.98047-0.66406-1.2734l-38.145-26.965c-0.26172-0.1875-0.57812-0.28906-0.90234-0.28906zm-0.003906 3.4766 36.586 25.859v7.5664l-35.68-25.223c-0.53906-0.38281-1.2656-0.38281-1.8047 0l-35.68 25.219v-7.5625zm0 11.391 30.562 21.605v22.852c-1.0938 0.35938-2.1172 0.96484-2.9844 1.8281l-17.586 17.449h-2.5469c0.94531-1.2695 1.5078-2.8398 1.5078-4.5391 0-4.2227-3.4648-7.6602-7.6914-7.6602l-31.824 0.003906v-29.93zm-0.19531 10.672h0.003906c-0.12891 0.015625-0.25781 0.046875-0.37891 0.09375l-13.57 5.3281c-0.59766 0.23438-0.99219 0.8125-0.99219 1.4531v15.434c0 4.7422 3.875 8.4023 7.4219 11.004 3.5469 2.6016 7.0703 4.1914 7.0703 4.1914 0.41016 0.1875 0.87891 0.1875 1.2891 0 0 0 3.5195-1.5938 7.0664-4.1914 3.5469-2.6016 7.4297-6.2617 7.4297-11.004v-15.434h-0.003906c0-0.64062-0.39453-1.2188-0.99219-1.4531l-13.574-5.3281h-0.003907c-0.24219-0.09375-0.50391-0.12891-0.76172-0.09375zm0.19531 3.2266 12.012 4.7188v14.367c0 2.8867-2.9062 6.1094-6.1484 8.4844-2.9219 2.1406-5.3125 3.2227-5.8672 3.4805-0.55469-0.25781-2.9414-1.3398-5.8594-3.4805-3.2383-2.375-6.1484-5.5977-6.1484-8.4844v-14.371zm6.7539 9.4688c-0.41406 0.007812-0.80859 0.17969-1.0938 0.48047l-6.4492 6.7578-3.5352-3.7031c-0.59375-0.625-1.582-0.64844-2.207-0.050782-0.30078 0.28516-0.47266 0.67969-0.48047 1.0938-0.011719 0.41406 0.14453 0.81641 0.43359 1.1133l4.6602 4.8828v0.003906c0.29297 0.30859 0.70312 0.48438 1.1289 0.48438 0.42578 0 0.83594-0.17578 1.1328-0.48438l7.5781-7.9414h-0.003906c0.28906-0.30078 0.44141-0.70312 0.43359-1.1172-0.011718-0.41406-0.18359-0.80859-0.48437-1.0938-0.30078-0.28125-0.69922-0.4375-1.1133-0.42578z"/>

</svg>