<svg xmlns="http://www.w3.org/2000/svg" version="1.1" viewBox="-5.0 -10.0 110.0 135.0">
    <path d="m50 0c-8.7656 0-16.941 7.1133-15.855 16.004l1.5781 12.898-31.73 10.527h0.003906c-0.63672 0.21094-1.0664 0.80859-1.0664 1.4805v10.57c0 0.41406 0.16406 0.8125 0.45703 1.1055 0.29297 0.29687 0.69141 0.46094 1.1055 0.46094h34.188l2.6875 21.953-14.371 4.6953c-0.64453 0.20703-1.0781 0.80469-1.0781 1.4805v6.7852c0 0.41406 0.16406 0.80859 0.45703 1.1055 0.29297 0.29297 0.69141 0.45703 1.1055 0.45703h16.285l4.8398 9.6211v-0.003906c0.26562 0.52734 0.80469 0.85938 1.3945 0.85938s1.1289-0.33203 1.3945-0.85938l4.832-9.6211h4.2812c4.668 3.2383 9.0156 5.1914 9.0156 5.1914h0.003906c0.41016 0.1875 0.87891 0.1875 1.2852 0 0 0 5.0078-2.25 10.047-5.9219 5.0391-3.6758 10.414-8.8203 10.414-15.215l0.003906-20.527h4.2344-0.003907c0.41406 0 0.8125-0.16797 1.1055-0.46094 0.29297-0.29297 0.45703-0.69141 0.45703-1.1055v-10.57c0-0.67188-0.43359-1.2695-1.0703-1.4805l-31.723-10.527 1.582-12.898c1.0898-8.8906-7.0859-16.004-15.855-16.004zm0 3.125c7.082 0 13.578 5.7188 12.75 12.496l-3.7852 30.926-8.9023 3.4766c-0.59766 0.23437-0.99219 0.8125-0.99219 1.457v22.094c0 5.1055 3.4297 9.418 7.3789 12.82h-1.1836v0.003907c-0.58984-0.003907-1.1289 0.33203-1.3945 0.85547l-3.8711 7.7031-3.875-7.7031c-0.26562-0.52344-0.80469-0.85938-1.3945-0.85547h-15.688v-4.0859l14.516-4.7383c0.71094-0.23438 1.1602-0.9375 1.0664-1.6797l-7.375-60.273c-0.82812-6.7812 5.6719-12.496 12.75-12.496zm13.887 28.941 30.059 9.9727v7.8789h-3.9336l-19.273-7.5273v0.003906c-0.36328-0.14453-0.76953-0.14453-1.1367 0l-7.332 2.8633zm-27.773 0 2.1836 17.852h-32.246v-7.8828zm34.062 13.457 17.977 7.0234v21.027c0 4.5273-4.3984 9.2383-9.1289 12.688-4.4102 3.2188-8.2734 4.9531-8.8516 5.2188-0.55469-0.25391-4.0781-1.8438-8.2188-4.7695h-0.003906c-0.027344-0.019532-0.054688-0.039063-0.082031-0.054688-0.17969-0.12891-0.36328-0.25781-0.54297-0.39062-4.7305-3.4492-9.1289-8.1602-9.1289-12.688v-21.027zm9.7344 14.957h-0.003906c-0.41406 0.007812-0.80859 0.18359-1.0938 0.48438l-9.7812 10.184-5.582-5.8125c-0.28516-0.30078-0.68359-0.47656-1.0977-0.48438-0.41406-0.007812-0.81641 0.14844-1.1172 0.4375-0.62109 0.59766-0.63672 1.5859-0.039063 2.207l6.7109 6.9961c0.29688 0.30859 0.70312 0.48047 1.1289 0.48047 0.42578 0 0.83203-0.17188 1.1289-0.48047l10.906-11.367h-0.003906c0.59766-0.62109 0.57812-1.6094-0.042968-2.207-0.30078-0.28906-0.69922-0.44531-1.1172-0.4375z"/>

</svg>