<svg xmlns="http://www.w3.org/2000/svg" version="1.1" viewBox="-5.0 -10.0 110.0 135.0">
    <path d="m38.75 12.465c-4.9648 0-9.0352 4.043-9.0352 8.9961 0 2.8359 1.332 5.3711 3.4023 7.0234-5.0977 2.1797-8.6758 7.2227-8.6758 13.098v13.133c0 0.41406 0.16797 0.8125 0.46094 1.1055 0.29297 0.29297 0.69141 0.45703 1.1055 0.45703h35.363 0.003906 20.25c0.41406 0 0.8125-0.16406 1.1055-0.45703 0.29297-0.29297 0.45703-0.69141 0.45703-1.1055v-8.7812c0-5.875-3.5742-10.922-8.6758-13.102 2.0703-1.6523 3.4023-4.1875 3.4023-7.0195 0-4.9531-4.0703-8.9961-9.0352-8.9961s-9.0312 4.043-9.0312 8.9961c0 2.832 1.3281 5.3672 3.3945 7.0156-1.4336 0.60938-2.7461 1.4492-3.8945 2.4688-0.90625-2.1641-3.0547-3.6953-5.5312-3.6953-1.3984 0-2.6914 0.48438-3.7148 1.2969-1.4805-1.9219-3.4453-3.4531-5.7148-4.418 2.0664-1.6523 3.3945-4.1836 3.3945-7.0156 0-4.9531-4.0664-8.9961-9.0312-8.9961zm0 3.1211c3.2852 0 5.9062 2.6172 5.9062 5.875 0 3.2578-2.6211 5.8711-5.9062 5.8711s-5.9102-2.6133-5.9102-5.8711c0-3.2578 2.625-5.875 5.9102-5.875zm30.129 4.3516c3.2852 0 5.9102 2.6133 5.9102 5.8711 0 3.2578-2.625 5.8711-5.9102 5.8711s-5.9062-2.6133-5.9062-5.8711c0-3.2578 2.6211-5.8711 5.9062-5.8711zm-30.129 10.52c3.9844 0 7.4414 2.0391 9.4219 5.1172-0.22656 0.625-0.34766 1.3008-0.34766 2 0 1.5352 0.58984 2.9375 1.5547 4-2.7891 1.5547-4.6836 4.5273-4.6836 7.9336v3.6445h-17.125v-11.57c0-6.1836 4.957-11.125 11.184-11.125zm15.066 4.2695c1.6055 0 2.8672 1.2617 2.8672 2.8477 0 1.5859-1.2578 2.8477-2.8672 2.8477-0.5 0-0.96484-0.12109-1.3711-0.33594v0.003906c-0.085937-0.070313-0.18359-0.12891-0.28125-0.17578-0.73828-0.51172-1.2148-1.3633-1.2148-2.3359 0-0.44531 0.10156-0.86719 0.27734-1.2422 0.050782-0.078126 0.097657-0.16016 0.13281-0.24609 0.49609-0.82031 1.4023-1.3672 2.457-1.3672zm15.062 0.082032c6.2266 0 11.184 4.9414 11.184 11.125v7.2188h-17.129v-3.6445c0-3.2969-1.7734-6.1875-4.4141-7.7773 1.6562-4.0625 5.6406-6.9219 10.363-6.9219zm-15.062 8.7383c0.79688 0 1.5508 0.14844 2.2383 0.42188v-0.003906c0.042968 0.019531 0.085937 0.035156 0.12891 0.050781 2.1484 0.90234 3.625 3.0039 3.625 5.4883v3.6445h-11.988v-3.6445c0-2.6328 1.6562-4.8359 4.0117-5.6367 0.089844-0.015626 0.17578-0.042969 0.25781-0.078126 0.54688-0.16016 1.125-0.24609 1.7266-0.24609zm38.465 8.9961c-1.9766-0.003907-3.9531 0.73828-5.4531 2.2266l-17.582 17.445h-2.5469c0.94141-1.2695 1.5-2.8398 1.5-4.5352 0-4.2227-3.4648-7.6641-7.6953-7.6641h-36.727c-0.11719 0-0.23047 0.011719-0.34375 0.035156-0.035156 0.011719-0.066406 0.019531-0.097656 0.03125-0.074219 0.019531-0.14453 0.046875-0.21484 0.074219-0.035156 0.019531-0.074219 0.039062-0.10938 0.058594-0.058594 0.035156-0.11719 0.070312-0.17578 0.10938-0.035157 0.03125-0.070313 0.058593-0.10547 0.089843-0.027344 0.019532-0.050781 0.042969-0.074219 0.0625l-22.199 22.25c-0.60938 0.60938-0.60938 1.5977 0 2.207 0.60938 0.61328 1.6016 0.61328 2.2109 0l21.746-21.793h36.09c2.5625 0 4.5664 2.0039 4.5664 4.5391 0 2.5352-2.0039 4.5352-4.5664 4.5352h-13.305v-0.003906c-0.41406 0-0.8125 0.16406-1.1055 0.45703-0.29297 0.29688-0.45703 0.69141-0.45703 1.1055 0 0.41406 0.16406 0.8125 0.45703 1.1055 0.29297 0.29688 0.69141 0.46094 1.1055 0.46094h22.688c0.41406 0 0.80859-0.16406 1.1016-0.45703h0.003907c0.007812-0.011718 0.019531-0.019531 0.027343-0.03125l18.004-17.863 0.007812-0.007812c1.8047-1.7773 4.6953-1.7734 6.5156 0.019531 1.8242 1.793 1.8164 4.5625 0.007813 6.3555l-21.238 21.055h-40.91c-0.41406 0-0.8125 0.16406-1.1055 0.45703-0.29297 0.29297-0.45703 0.69141-0.45703 1.1055 0 0.41406 0.16406 0.8125 0.45703 1.1055s0.69141 0.45703 1.1055 0.45703h41.559c0.042968 0 0.089844-0.003906 0.13672-0.007812 0.015626 0 0.035157-0.003906 0.050782-0.003906 0.10547-0.011719 0.20703-0.035157 0.30469-0.066407 0.007813-0.003906 0.019531-0.007812 0.03125-0.011719 0.21094-0.078124 0.40625-0.19922 0.57031-0.35937l21.695-21.512c2.9961-2.9688 2.9961-7.8359-0.019531-10.801-1.5078-1.4844-3.4805-2.2305-5.4531-2.2305z"/>

</svg>