<svg xmlns="http://www.w3.org/2000/svg" viewBox="0 0 96 120" x="0px" y="0px">
    <title>Baby nsurance</title>
    <g data-name="Baby nsurance">
        <path d="M55.26,76.83c.06-.23,0-.11,0,0Z"/>
        <path d="M25.05,31.21a1,1,0,0,0-1,1v1.44a1,1,0,0,0,2,0V32.21A1,1,0,0,0,25.05,31.21Z"/>
        <path d="M43.57,31.21a1,1,0,0,0-1,1v1.44a1,1,0,0,0,2,0V32.21A1,1,0,0,0,43.57,31.21Z"/>
        <path d="M37.06,40.74a4,4,0,0,1-5.5,0,1,1,0,1,0-1.41,1.41,5.86,5.86,0,0,0,8.32,0,1,1,0,0,0-1.41-1.41Z"/>
        <path d="M91.93,6.46a.83.83,0,0,0-.34-.27C91.35,6.08,70.25,0,70,0S48.71,6.07,48.47,6.19c-.78.38-.57.73-.57,6.55C34.56,4.63,16,10.2,10.69,24.72A7.51,7.51,0,0,0,3.84,32a7.5,7.5,0,0,0,6.85,7.29,22.93,22.93,0,0,0,7.59,10.29,20.9,20.9,0,0,0-10.8,18.3c0,2.52-.16,4.73,1.63,7.5a7.71,7.71,0,0,0-.24,12.72C17.21,94,17.08,94,18,94.39a2.84,2.84,0,0,0,4.56.78L25.7,92a21.41,21.41,0,0,0,17.05.08l3.07,3.07a2.83,2.83,0,0,0,4.53-.7c.93-.39.33,0,9.15-6.31a7.71,7.71,0,0,0-.07-12.6c1.9-2.85,1.71-5.25,1.71-7.62a20.94,20.94,0,0,0-10.79-18.3,23.42,23.42,0,0,0,3.86-3.78c4.14,4.86,9.51,7.72,13.47,9.82,2,1,2.16,1.31,2.77,1l1.87-1C79.26,52,92.16,45.29,92.16,27.73,92.16,5.23,92.27,6.87,91.93,6.46ZM85.58,10,71,5.85V2.33L89,7.49ZM70.05,48.53c-6.06-3.24-14.77-8.2-14.77-20.8V11.89L70,7.64l14.75,4.25V27.73C84.78,40.43,75.77,45.51,70.05,48.53ZM54.48,10,51.1,7.49,69,2.33V5.85ZM5.84,32A5.43,5.43,0,0,1,10,26.87a21,21,0,0,0,0,10.28A5.43,5.43,0,0,1,5.84,32ZM10,86.48a5.71,5.71,0,0,1,3.2-10.35,5,5,0,0,0,.14.69c0-.23-.1-.46-.13-.69a2.81,2.81,0,0,1,.58,0A5.65,5.65,0,0,1,17,77.45c.67.52.58.5,5.75,7.76a4.41,4.41,0,0,0-3.29,1.31l-1.29,1.29a4.43,4.43,0,0,0-1.29,3.54ZM14.9,71H53.73a31,31,0,0,1-.1,3.22,7.55,7.55,0,0,0-2.93,1.2h-33A7.57,7.57,0,0,0,15,74.3C14.88,73.81,14.9,71.13,14.9,71ZM25.41,89.44c-2.83,2.83-1.82,1.83-4.32,4.31a.83.83,0,0,1-1.36-.26c-.4-.91-.25-.56-.67-1.54a2.46,2.46,0,0,1,.53-2.73c1.23-1.23,1.54-1.67,2.34-1.92,1-.3,1.62.08,3.22.77A.85.85,0,0,1,25.41,89.44Zm1.77,1a2.85,2.85,0,0,0-1.24-4.18l-.15-.07c-.37-.76-.39-.69-6.11-8.72h29l-5.57,7.81c-.71,1-.29.74-.73.93a2.83,2.83,0,0,0-1.15,4.31A19.38,19.38,0,0,1,27.18,90.42Zm20.27-2.53,1.29,1.29a2.45,2.45,0,0,1,.52,2.73c-.69,1.63-.72,1.93-1.27,2a.85.85,0,0,1-.76-.23,20.34,20.34,0,0,1-2.52-2.63c-.11,0,.12.23-1.55-1.45a1,1,0,0,1-.47-1c.1-.53.44-.59,1.48-1a3.54,3.54,0,0,1,1.53-.44A2.45,2.45,0,0,1,47.45,87.89Zm11.62-10.1a5.72,5.72,0,0,1-.73,8.69l-6.89,4.91a4.52,4.52,0,0,0-1.29-3.63c-1.43-1.43-2.37-2.62-4.51-2.6l4.73-6.64A5.72,5.72,0,0,1,59.07,77.79Zm.07-9.9c0,2.49.16,4.34-1.5,6.69a7.36,7.36,0,0,0-2-.43c.11-1.26.08-1.9.08-4.12a1,1,0,0,0-1-1H53V64.38a1,1,0,0,0-2,0V69H17.64V64.38a1,1,0,0,0-2,0V69H13.9a1,1,0,0,0-1,1A41,41,0,0,0,13,74.14a6.82,6.82,0,0,0-2.05.38C9.27,72.11,9.48,70,9.48,67.89a19,19,0,0,1,10.63-17,24.62,24.62,0,0,0,4.33,2.24v3.29a9.87,9.87,0,1,0,19.74,0V53.12a24.37,24.37,0,0,0,4.34-2.24A19,19,0,0,1,59.14,67.89Zm-29-13.21a26.22,26.22,0,0,0,8.34,0v1.73a4.17,4.17,0,1,1-8.34,0Zm4.17,7.9a6.18,6.18,0,0,0,6.17-6.17V54.29a16.43,16.43,0,0,0,1.7-.47v2.59a7.87,7.87,0,1,1-15.74,0V53.82c.56.18,1.12.34,1.7.47v2.12A6.18,6.18,0,0,0,34.31,62.58ZM28.14,52.23c-11.45-2.81-19.28-14.06-16-25.54C16.37,12,35.25,6.46,47.9,15.11V27.73a27.07,27.07,0,0,0,5,16.48C47.13,51.68,37,54.54,28.14,52.23Zm27.33-8.1a24.93,24.93,0,0,1-5.57-16.4V9.09l3.38,2.54v16.1C53.28,41.45,62.89,47,69,50.25v3.83C64,51.41,59.22,48.73,55.47,44.13ZM71.39,53.9l-.36.19V50.27c5.79-3.05,15.75-8.7,15.75-22.54V11.63l3.38-2.54V27.73C90.16,44.08,78,50.47,71.39,53.9Z"/>
        <path d="M82.16,18.2a3.18,3.18,0,0,0-5.57-1.84L67.05,27.43l-4-3.14a3.18,3.18,0,1,0-3.91,5l6.41,5a3.18,3.18,0,0,0,4.36-.43L81.4,20.5A3.17,3.17,0,0,0,82.16,18.2Zm-2.28,1L68.37,32.56a1.2,1.2,0,0,1-1.62.16l-6.41-5a1.18,1.18,0,0,1,.73-2.1c.53,0,.27-.11,5.5,4a1,1,0,0,0,1.37-.13L78.1,17.66a1.18,1.18,0,1,1,1.78,1.54Z"/>
    </g>

</svg>