<svg xmlns="http://www.w3.org/2000/svg" viewBox="0 0 64 80" x="0px" y="0px">
    <title>_</title>
    <g data-name="Dog Insurance">
        <path d="M32,60a2.074,2.074,0,0,1-.80176-.16016l-.001-.00048a41.95813,41.95813,0,0,1-8.30176-4.8545C7.26855,43.8125,7.5752,21.0957,7.70605,11.395c.00782-.58838.01563-1.13135.01856-1.62305a2.03987,2.03987,0,0,1,1.37207-1.9165A71.88805,71.88805,0,0,1,31.99512,4,71.8567,71.8567,0,0,1,54.90234,7.85547a2.03929,2.03929,0,0,1,1.373,1.916c.00293.49219.01074,1.03516.01856,1.62354.13085,9.70068.4375,32.41748-15.18946,43.58984a41.95784,41.95784,0,0,1-8.30176,4.8545A2.07939,2.07939,0,0,1,32,60Zm-.0293-2.00488a.10312.10312,0,0,0,.05957,0,39.60944,39.60944,0,0,0,7.91016-4.63721C54.71777,42.794,54.4209,20.80957,54.294,11.42236c-.00782-.59375-.01563-1.14111-.01856-1.63769a65.56461,65.56461,0,0,0-8.84961-2.41944A70.08275,70.08275,0,0,0,31.99512,6a69.87889,69.87889,0,0,0-22.251,3.748c-.02246.5332-.03027,1.08056-.03809,1.67431C9.5791,20.80957,9.28223,42.794,24.05957,53.35791A39.56329,39.56329,0,0,0,31.9707,57.99512Z"/>
        <path d="M29.68457,29.41357a1.00107,1.00107,0,0,1-.87207-.5083.28574.28574,0,0,0-.499,0,1.00029,1.00029,0,0,1-1.74219-.98339,2.28686,2.28686,0,0,1,3.9834,0,1.00008,1.00008,0,0,1-.87012,1.49169Z"/>
        <path d="M36.55859,29.41357a1.00107,1.00107,0,0,1-.87207-.5083.28574.28574,0,0,0-.499,0,1.00029,1.00029,0,0,1-1.74219-.98339,2.28686,2.28686,0,0,1,3.9834,0,1.00008,1.00008,0,0,1-.87012,1.49169Z"/>
        <path d="M42.523,48.42761c10.10785-10.83636,9.8736-29.14563,9.77777-36.49646a.99959.99959,0,0,0-.707-.94287c-2.15332-.66064-4.36133-1.21973-6.56152-1.66211A67.94119,67.94119,0,0,0,32.01465,8,68.077,68.077,0,0,0,18.96777,9.32617c-2.20312.44287-4.41113,1.00147-6.56152,1.66113a.99961.99961,0,0,0-.707.94288c-.09583,7.35125-.33,25.661,9.77777,36.4981.01117.01618.02686.02784.03894.04334a24.99337,24.99337,0,0,0,3.70673,3.25983A40.81684,40.81684,0,0,0,31.57129,55.626a.99886.99886,0,0,0,.85742,0,40.67212,40.67212,0,0,0,6.34863-3.89551,24.99136,24.99136,0,0,0,3.704-3.25659C42.49432,48.45734,42.51111,48.44489,42.523,48.42761ZM13.68945,12.68994c1.86621-.5498,3.77051-1.021,5.67285-1.40283A66.01521,66.01521,0,0,1,32.01465,10a65.84048,65.84048,0,0,1,12.623,1.28711c1.89941.38135,3.80371.853,5.67285,1.40381.09247,7.73291.02575,23.13916-8.09742,33.0733a16.24683,16.24683,0,0,0-3.16564-5.769,6.05591,6.05591,0,0,0,1.18591-.85748,6.651,6.651,0,0,0,2.048-4.11158l.02033.00074c1.85742,0,3.16406-.41651,3.88965-1.2417a5.45951,5.45951,0,0,0,.88964-4.80371c-.60937-3.09034-2.68652-6.30372-4.72949-7.31446a9.96425,9.96425,0,0,0-4.73291-.7218c-.08783-.08795-.1709-.177-.26513-.264-1.42969-1.31933-3.52832-1.35937-4.917-1.38574l-.46875-.00928-.38964.00928c-1.39161.02783-3.49415.07031-4.92969,1.394-.09168.08466-.17224.17133-.25781.25684a9.9854,9.9854,0,0,0-4.74219.7207c-2.043,1.01074-4.12012,4.22412-4.72949,7.31446a5.45951,5.45951,0,0,0,.88964,4.80371c.72657.82519,2.03321,1.2417,3.89161,1.2417l.02032-.00074a6.6551,6.6551,0,0,0,2.049,4.11988,6.02527,6.02527,0,0,0,1.17993.85229A16.255,16.255,0,0,0,21.787,45.76422C13.66357,35.82928,13.597,20.42316,13.68945,12.68994Zm23.305,26.06238A12.42946,12.42946,0,0,1,33,39.3186V35.00067a2.83682,2.83682,0,0,0,.84961-.67645,3.45409,3.45409,0,0,0,.793-1.80567,1.0015,1.0015,0,0,0-.30664-.82421A3.19193,3.19193,0,0,0,32,30.86377a3.157,3.157,0,0,0-2.33789.82715.99924.99924,0,0,0-.30664.83056,3.47732,3.47732,0,0,0,.79394,1.80225A2.84693,2.84693,0,0,0,31,35.00122v4.3197c-2.64209.00629-4.75128-.569-5.8457-1.61877-1.377-1.31934-1.59571-2.84277-1.5-4.72363.07812-1.543.55664-2.83692,1.50879-5.41553l.08007-.21729c1.19922-3.25146,1.71582-4.2207,2.76172-5.18652.87793-.80908,2.459-.84082,3.61426-.86426l.34863-.00976.43067.00976c1.15039.022,2.72754.05225,3.59765.856,1.04688.96533,1.56348,1.93506,2.76368,5.18652l.07519.2041c.95508,2.58545,1.43457,3.88282,1.5127,5.4292.09668,1.87989-.1211,3.40284-1.499,4.72364a5.02435,5.02435,0,0,1-1.83551,1.05145ZM32.33105,33.023a.85091.85091,0,0,1-.331.24219.84681.84681,0,0,1-.332-.24268,1.28563,1.28563,0,0,1-.09961-.13232,3.31007,3.31007,0,0,1,.8623.00049A1.3394,1.3394,0,0,1,32.33105,33.023Zm-10.6748-.146c-.00238.04743-.00214.097-.00421.14478a3.45791,3.45791,0,0,1-2.34345-.55884,3.65961,3.65961,0,0,1-.42773-3.09473c.52832-2.67724,2.34961-5.26318,3.6543-5.90918a6.3984,6.3984,0,0,1,2.38513-.5072,30.7618,30.7618,0,0,0-1.55408,3.70154l-.08008.2168C22.2959,29.55176,21.751,31.02881,21.65625,32.877Zm20.694.14527c-.0022-.05066-.002-.10327-.00452-.15357-.09472-1.85058-.6416-3.33154-1.63379-6.02l-.07519-.2041a30.87752,30.87752,0,0,0-1.551-3.69354,6.39191,6.39191,0,0,1,2.37909.508c1.30469.646,3.126,3.23194,3.6543,5.90918a3.6573,3.6573,0,0,1-.42871,3.09522A3.45862,3.45862,0,0,1,42.35022,33.02222Zm-4.736,17.0813A40.46083,40.46083,0,0,1,32,53.61084a40.56323,40.56323,0,0,1-5.61328-3.50635,23.47477,23.47477,0,0,1-2.99768-2.5603,14.17731,14.17731,0,0,1,3.52154-6.73071,16.7477,16.7477,0,0,0,5.09626.48681l.07324.00342c.27344.01221.57617.02051.90234.02051a15.52,15.52,0,0,0,4.1012-.51746A14.173,14.173,0,0,1,40.61115,47.544,23.47208,23.47208,0,0,1,37.61426,50.10352Z"/>
    </g>

</svg>