<?xml version="1.0" standalone="no"?>
<!DOCTYPE svg PUBLIC "-//W3C//DTD SVG 20010904//EN"
 "http://www.w3.org/TR/2001/REC-SVG-20010904/DTD/svg10.dtd">
<svg version="1.0" xmlns="http://www.w3.org/2000/svg"
 width="520.000000pt" height="150.000000pt" viewBox="0 0 520.000000 150.000000"
 preserveAspectRatio="xMidYMid meet">

<g transform="translate(0.000000,150.000000) scale(0.100000,-0.100000)"
fill="#000000" stroke="none">
<path d="M2965 1360 c-229 -42 -423 -217 -491 -445 -27 -89 -24 -259 5 -345
71 -207 221 -355 421 -414 435 -129 870 271 776 715 -28 131 -116 277 -214
356 -56 45 -157 98 -222 117 -68 20 -208 28 -275 16z m552 -406 c34 -21 57
-46 78 -84 28 -51 30 -63 30 -155 0 -108 -11 -141 -64 -198 -45 -49 -98 -71
-176 -71 -127 -2 -209 62 -241 185 -29 113 -2 228 70 298 48 46 97 62 183 58
59 -3 82 -10 120 -33z m-588 0 c93 -47 139 -142 129 -268 -8 -97 -54 -168
-138 -212 -29 -16 -63 -19 -197 -22 l-163 -4 0 31 c0 26 4 31 25 31 l25 0 0
205 0 205 -25 0 c-21 0 -25 5 -25 30 l0 30 158 0 c151 0 161 -1 211 -26z"/>
<path d="M3341 917 c-50 -25 -65 -60 -69 -162 -2 -52 -1 -116 3 -141 9 -62 49
-104 99 -104 96 0 116 36 116 212 0 105 -3 128 -20 156 -30 48 -81 64 -129 39z"/>
<path d="M2740 716 l0 -206 33 0 c60 0 107 19 128 53 18 28 19 47 17 164 -3
129 -4 133 -30 160 -22 22 -39 27 -88 31 l-60 4 0 -206z"/>
<path d="M602 1037 c-8 -9 3 -30 40 -80 46 -61 54 -68 82 -65 24 2 42 17 83
68 45 56 50 67 38 79 -13 13 -22 10 -70 -23 l-55 -38 -50 36 c-57 41 -54 40
-68 23z"/>
<path d="M1380 1006 c-44 -9 -56 -16 -58 -32 -2 -16 4 -23 23 -28 l25 -6 -2
-218 c-3 -217 -3 -217 -25 -220 -15 -2 -23 -10 -23 -23 0 -17 8 -19 100 -19
93 0 100 1 100 20 0 13 -7 20 -20 20 -17 0 -20 7 -20 48 0 38 5 53 24 71 l23
22 15 -23 c18 -28 58 -105 58 -113 0 -3 -7 -5 -15 -5 -8 0 -15 -9 -15 -20 0
-19 7 -20 100 -20 92 0 100 2 100 19 0 12 -8 21 -21 23 -20 3 -71 78 -127 187
l-17 33 45 39 c25 22 55 39 68 39 17 0 22 6 22 25 0 26 0 26 -82 23 -71 -3
-83 -6 -86 -21 -3 -12 4 -20 17 -24 12 -3 21 -8 21 -11 0 -6 -112 -126 -122
-130 -5 -2 -8 78 -8 177 l0 181 -22 -1 c-13 -1 -48 -6 -78 -13z"/>
<path d="M1850 1006 c-44 -9 -56 -16 -58 -33 -2 -14 3 -23 17 -28 20 -6 21
-13 21 -226 0 -212 -1 -219 -20 -219 -13 0 -20 -7 -20 -20 0 -19 7 -20 100
-20 93 0 100 1 100 20 0 13 -7 20 -20 20 -19 0 -20 7 -20 260 l0 260 -22 -1
c-13 -1 -48 -6 -78 -13z"/>
<path d="M34 965 c-8 -19 3 -32 31 -37 19 -3 20 -11 20 -213 l0 -210 -27 -3
c-20 -2 -28 -9 -28 -23 0 -18 8 -19 125 -19 118 0 125 1 125 20 0 16 -7 20
-35 20 l-35 0 0 93 0 94 30 -5 c17 -2 60 -1 97 3 60 6 72 11 104 44 67 67 60
171 -14 225 -26 19 -46 21 -208 24 -160 4 -180 2 -185 -13z m316 -65 c6 -8 10
-41 10 -72 0 -71 -19 -88 -97 -88 l-53 0 0 93 0 92 66 -5 c41 -4 68 -11 74
-20z"/>
<path d="M613 841 c-65 -13 -73 -17 -73 -38 0 -16 6 -23 20 -23 19 0 20 -7 20
-140 0 -133 -1 -140 -20 -140 -13 0 -20 -7 -20 -20 0 -19 7 -20 105 -20 97 0
105 1 105 19 0 14 -8 21 -27 23 l-28 3 -3 105 c-3 122 0 142 30 170 26 24 42
26 34 4 -10 -27 21 -64 54 -64 53 0 78 66 41 111 -14 18 -29 24 -61 24 -36 0
-47 -6 -71 -34 l-28 -34 -3 34 -3 34 -72 -14z"/>
<path d="M1026 846 c-85 -32 -122 -102 -114 -219 7 -114 75 -177 190 -177 61
0 105 23 142 73 20 27 20 29 3 42 -15 11 -22 9 -47 -16 -23 -24 -37 -29 -75
-29 -61 0 -95 32 -95 90 l0 40 120 0 120 0 0 37 c0 55 -34 116 -79 141 -51 29
-116 36 -165 18z m110 -59 c7 -7 15 -29 18 -49 l7 -38 -66 0 -65 0 0 35 c0 64
64 96 106 52z"/>
<path d="M2153 851 c-73 -19 -116 -70 -95 -115 13 -29 43 -38 74 -22 25 13 36
50 19 70 -15 18 -4 26 35 26 48 0 74 -32 74 -92 l0 -48 -65 0 c-106 0 -155
-37 -155 -118 0 -35 6 -49 29 -73 26 -25 37 -29 86 -29 50 0 60 4 84 29 l27
29 16 -29 c15 -25 23 -29 62 -29 24 0 51 3 60 6 23 9 20 44 -3 44 -17 0 -19
11 -23 135 -4 146 -14 175 -71 203 -34 17 -113 23 -154 13z m107 -265 c0 -35
-5 -48 -22 -60 -44 -31 -88 -9 -88 44 0 35 32 60 77 60 32 0 33 -1 33 -44z"/>
<path d="M4255 841 c-38 -8 -73 -19 -77 -25 -14 -20 -8 -35 15 -38 21 -3 22
-7 25 -140 3 -135 2 -137 -20 -140 -13 -2 -24 -11 -26 -20 -3 -16 7 -18 97
-18 92 0 101 2 101 19 0 10 -9 21 -20 24 -19 5 -20 14 -20 121 0 132 11 156
73 156 53 0 57 -11 57 -151 0 -118 -1 -127 -20 -132 -11 -3 -20 -12 -20 -21 0
-14 15 -16 100 -16 93 0 100 1 100 20 0 13 -7 20 -20 20 -19 0 -20 7 -20 118
0 129 -9 174 -41 208 -45 48 -160 36 -192 -20 -11 -20 -12 -19 -17 15 l-5 35
-70 -15z"/>
<path d="M4783 851 c-73 -19 -116 -70 -95 -115 13 -29 43 -38 74 -22 25 13 36
50 19 70 -15 18 -4 26 36 26 49 0 73 -29 73 -90 l0 -50 -60 0 c-109 0 -160
-38 -160 -118 0 -35 6 -49 29 -73 26 -25 37 -29 86 -29 48 0 60 4 84 28 l28
28 16 -29 c16 -26 20 -28 74 -25 51 3 58 6 61 26 3 16 -2 22 -16 22 -19 0 -20
8 -24 133 -3 142 -12 169 -61 202 -28 18 -121 27 -164 16z m107 -265 c0 -57
-21 -80 -64 -72 -35 7 -46 21 -46 58 0 33 33 58 77 58 32 0 33 -1 33 -44z"/>
<path d="M3730 827 c0 -15 7 -26 18 -29 12 -4 29 -35 51 -94 19 -49 47 -124
63 -167 l30 -78 45 3 46 3 58 155 c32 85 58 161 59 168 0 6 9 12 20 12 15 0
20 7 20 25 0 24 -2 25 -70 25 -68 0 -70 -1 -70 -25 0 -18 5 -25 20 -25 11 0
20 -5 20 -11 0 -16 -61 -213 -69 -221 -6 -7 -81 197 -81 220 0 5 9 12 21 15
13 4 20 12 17 24 -3 16 -16 18 -101 21 -97 3 -97 3 -97 -21z"/>
</g>
</svg>
