<svg xmlns="http://www.w3.org/2000/svg" data-name="Layer 1" viewBox="0 0 64 80" x="0px" y="0px">
    <rect x="6" y="23" width="22" height="2" rx="1" ry="1"/>
    <rect x="10" y="43" width="16" height="2" rx="1" ry="1"/>
    <path d="M47,11.44v-3.47c0-2.74-2.23-4.97-4.97-4.97h-12.07c-2.74,0-4.97,2.23-4.97,4.97v3.49c-4.83,2.26-8.86,5.96-11.51,10.55h15.33c.65,0,1.18,.9,1.18,2s-.53,2-1.18,2H11.6c-.59,1.6-1.01,3.27-1.27,5h14.49c.65,0,1.18,.9,1.18,2s-.53,2-1.18,2H10c0,2.43,.34,4.77,.96,7h15.79c.69,0,1.25,.9,1.25,2s-.56,2-1.25,2H12.44c4.14,8.86,13.13,15,23.56,15,14.36,0,26-11.64,26-26,0-10.43-6.14-19.42-15-23.56Zm-12,.56c0-.55,.45-1,1-1s1,.45,1,1v2c0,.55-.45,1-1,1s-1-.45-1-1v-2Zm2,46c0,.55-.45,1-1,1s-1-.45-1-1v-2c0-.55,.45-1,1-1s1,.45,1,1v2Zm8-22h-6.18c-.41,1.16-1.51,2-2.82,2-1.65,0-3-1.35-3-3,0-1.3,.84-2.4,2-2.82v-10.18c0-.55,.45-1,1-1s1,.45,1,1v10.18c.85,.3,1.51,.97,1.82,1.82h6.18c.55,0,1,.45,1,1s-.45,1-1,1Zm14,0h-2c-.55,0-1-.45-1-1s.45-1,1-1h2c.55,0,1,.45,1,1s-.45,1-1,1Z"/>
    <rect x="2" y="32" width="22" height="2" rx="1" ry="1"/>
    <rect x="4" y="43" width="4" height="2" rx="1" ry="1"/>

</svg>