<svg xmlns="http://www.w3.org/2000/svg" version="1.1" viewBox="-5.0 -10.0 110.0 135.0">
    <path d="m37.621 22.953c-0.30859-0.007813-0.60938 0.10938-0.83203 0.32422-0.22266 0.21484-0.34766 0.51172-0.34766 0.82031s0.125 0.60547 0.34766 0.82031c0.22266 0.21484 0.52344 0.33203 0.83203 0.32031h23.426c0.30859 0.011719 0.60938-0.10547 0.83203-0.32031 0.21875-0.21484 0.34375-0.51172 0.34375-0.82031s-0.125-0.60547-0.34375-0.82031c-0.22266-0.21484-0.52344-0.33203-0.83203-0.32422zm2.4805 50.094h48.754v7.0469c-0.011719 3.8867-3.1602 7.0352-7.0469 7.0469h-44.355c0.0625-0.058594 0.12109-0.11719 0.17969-0.17578h0.003907c1.5742-1.5664 2.4609-3.6953 2.4648-5.918zm-22.863-60.188c3.3672 0.007813 6.0938 2.7344 6.1016 6.1016v13.707h-12.195v-13.715c0.007813-3.3633 2.7305-6.0898 6.0938-6.0977zm23.242 46.266c0.007812 0.019531 0.0625 0.085938 0.027343 0.050781l-0.03125-0.035156v-0.011719zm12-5.6211c-0.007813-0.019531-0.0625-0.085937-0.027344-0.050781l0.03125 0.035156v0.011719zm-5.5586-0.8125c-0.14062-0.035156-0.28516-0.054687-0.42969-0.050781-0.14063-0.003906-0.27734 0.015625-0.41406 0.054687l-1.6758 0.50781c-0.15234 0.050781-0.3125 0.085937-0.47266 0.10938-0.15625 0.023438-0.31641 0.039062-0.47656 0.042969h-0.011719l-2.5352 0.078125v0.003906c-0.13281 0-0.26562 0.019531-0.39453 0.058594l-0.61719 0.76562c-0.12109 0.15234-0.26953 0.28516-0.43359 0.38672-0.14453 0.09375-0.30078 0.16797-0.46094 0.22266l-1.2891 0.48438 0.039062 0.058593v0.003907c0.29688 0.44531 0.32031 1.0195 0.054688 1.4883l-0.16797 0.30078 1.0156 0.35156c0.16016 0.050781 0.3125 0.12109 0.46094 0.20312 0.16406 0.097656 0.30859 0.21484 0.4375 0.35547l0.92188 1.0156v-0.011718-0.007813c0.13281 0.039063 0.26953 0.058594 0.40625 0.058594l2.0273 0.027344c0.16406 0 0.32812 0.011719 0.48828 0.035156 0.16016 0.019531 0.32031 0.054687 0.47656 0.097656l2.1602 0.60156h-0.003906c0.14062 0.035156 0.28516 0.054687 0.43359 0.054687 0.13672 0 0.27734-0.019531 0.41016-0.058593l1.6758-0.50781c0.15625-0.050781 0.3125-0.085937 0.47266-0.10938 0.16406-0.023438 0.32422-0.039062 0.48828-0.042969l2.5352-0.078125 0.003906-0.003906c0.13281 0 0.26562-0.023438 0.39062-0.058594l-0.070312 0.085938 0.070312-0.085938 0.61719-0.76562v-0.003906c0.125-0.15234 0.26953-0.28125 0.43359-0.38672 0.14844-0.089844 0.30078-0.16406 0.46094-0.22266l1.2891-0.48438-0.039062-0.058594v-0.003906c-0.14453-0.21484-0.22656-0.46484-0.23438-0.72656-0.015625-0.26562 0.050781-0.52734 0.18359-0.75781l0.16797-0.30078-1.0156-0.35156c-0.16016-0.054687-0.31641-0.12109-0.46094-0.20703-0.16406-0.09375-0.3125-0.21484-0.4375-0.35547l-0.92188-1.0156v0.011719 0.007812-0.003906c-0.13281-0.035156-0.26953-0.054687-0.41016-0.054687l-2.0273-0.027344c-0.16406-0.003906-0.32422-0.015625-0.48828-0.035156-0.16016-0.023438-0.31641-0.054688-0.47266-0.10156l-2.1602-0.60156zm36.395-33.793c-0.97266-0.97266-2.5547-0.97266-3.5312 0-0.97266 0.97656-0.97266 2.5586 0 3.5352 0.97656 0.97266 2.5547 0.97266 3.5312 0 0.97266-0.97656 0.97266-2.5586 0-3.5352zm-1.6172 1.6211c0.039062 0.039063 0.0625 0.09375 0.0625 0.14844 0 0.058593-0.023438 0.10938-0.0625 0.15234-0.039063 0.039063-0.09375 0.0625-0.14844 0.0625-0.058593 0-0.11328-0.023437-0.15234-0.0625-0.039063-0.042968-0.0625-0.09375-0.0625-0.15234 0-0.054688 0.023437-0.10938 0.0625-0.14844 0.039062-0.042969 0.09375-0.066406 0.15234-0.066406 0.054688 0 0.10938 0.023437 0.14844 0.066406zm-29.324 29.016c-0.89062-0.21094-1.793-0.37109-2.7031-0.48047-1.0586-0.12891-2.1211-0.19141-3.1875-0.19141-3.6016-0.078125-7.1641 0.73438-10.371 2.3711-2.4297 1.3516-3.9336 3.1523-3.9336 5.082 0 1.9297 1.5 3.7305 3.9336 5.082v-0.003907c3.207 1.6367 6.7695 2.4492 10.371 2.3711 3.3516 0.058594 6.6758-0.63672 9.7266-2.0352 1.8867-0.76562 3.4258-2.2031 4.3203-4.0391l-2.582-2.582c-0.011719 0.12891-0.039063 0.25391-0.082031 0.37891-0.027344 0.082031-0.0625 0.16016-0.10547 0.23828l-0.36719 0.66016 0.29297 0.45312c0.0625 0.089844 0.11328 0.1875 0.15234 0.29297 0.011718 0.03125 0.023437 0.0625 0.03125 0.097657 0.10547 0.33984 0.074218 0.71094-0.089844 1.0273-0.13672 0.27344-0.34375 0.5-0.59766 0.66406-0.15234 0.09375-0.3125 0.17188-0.48047 0.23438l-1.9297 0.72656-0.61719 0.76172h0.003906c-0.25781 0.30078-0.59766 0.52734-0.97656 0.64453-0.33984 0.10938-0.69531 0.16797-1.0547 0.17578l-2.5391 0.082031h0.003906c-0.070312 0-0.14062 0.007813-0.21094 0.015625-0.054687 0.011719-0.10937 0.023438-0.16016 0.039062l-1.6797 0.51172v-0.003906c-0.6875 0.19922-1.418 0.20703-2.1094 0.023437l-2.1602-0.60156h0.003906c-0.058594-0.015625-0.11719-0.023438-0.17578-0.03125-0.070312-0.011719-0.14453-0.015625-0.21484-0.015625l-2.0273-0.027344c-0.35938 0-0.71484-0.054687-1.0586-0.15625-0.375-0.10938-0.71484-0.31641-0.98438-0.60156l-0.89844-0.98828h-0.011719l-1.6016-0.55469h0.003906c-0.14453-0.046875-0.28516-0.10938-0.42188-0.18359-0.27734-0.14453-0.50781-0.36328-0.67188-0.62891-0.22266-0.35938-0.26953-0.80469-0.12109-1.1992 0.027344-0.085937 0.0625-0.16406 0.10547-0.24219l0.36719-0.66016-0.29297-0.44922v-0.003907c-0.0625-0.089843-0.11328-0.1875-0.15234-0.28906-0.011719-0.035156-0.023438-0.066406-0.03125-0.10156-0.10547-0.33984-0.074219-0.70703 0.089844-1.0273 0.13672-0.26953 0.34375-0.5 0.59766-0.66016 0.15234-0.097657 0.3125-0.17578 0.48047-0.23828l1.9297-0.72266 0.61719-0.76562h-0.003907c0.26172-0.30078 0.60156-0.52734 0.98047-0.64453 0.33984-0.10938 0.69531-0.16797 1.0508-0.17578l2.5352-0.078124h0.011718c0.066406-0.003907 0.13672-0.011719 0.19922-0.019532 0.054687-0.007812 0.10938-0.019531 0.16016-0.035156l1.6797-0.50781v-0.003907c0.34375-0.10156 0.69922-0.15234 1.0547-0.15625 0.35547-0.003906 0.71094 0.042969 1.0547 0.13672l2.1562 0.60156 0.003906-0.003906c0.054688 0.015625 0.11328 0.027344 0.16797 0.035156 0.070312 0.011719 0.14453 0.015626 0.21484 0.015626l2.0273 0.027343v0.003907c0.35547 0 0.71484 0.050781 1.0586 0.15625 0.375 0.10547 0.71484 0.3125 0.98047 0.59766l0.89453 0.98438h0.011719l1.082 0.375-3.7578-3.7578zm-4.6523-11.723-1.9219 1.918 16.688 16.688 1.918-1.918zm16.152 3.1992-2.6758-2.668 13.891-16.219 0.039062-0.046875 4.1875-4.8906c0.039063-0.046875 0.082032-0.09375 0.12109-0.13672l0.0625-0.050781c0.67188-0.65625 1.582-1.0117 2.5234-0.98438 0.99609 0.011719 1.9609 0.37109 2.7188 1.0195 0.058593 0.050782 0.13672 0.12109 0.23047 0.21484s0.16406 0.16797 0.21484 0.23047c0.64453 0.76172 1.0039 1.7227 1.0117 2.7188 0.027343 0.94141-0.32812 1.8477-0.98438 2.5234-0.078125 0.074219-0.13672 0.13672-0.18359 0.17578l-10.191 8.7266v-0.003906c-0.042969 0.035156-0.085938 0.070312-0.125 0.10547l-10.84 9.293zm7.0898 7.0898-5.4727-5.4727 8.8867-7.6094v35.742h-35.426c-0.62891 0-1.1406 0.50781-1.1445 1.1367v9.1445c-0.007813 3.1836-2.4609 5.8281-5.6328 6.0781-3.6875-0.27344-6.543-3.3359-6.5547-7.0312v-61.137c0-2.2227-0.88672-4.3516-2.4609-5.918-0.058594-0.058594-0.12109-0.11719-0.17969-0.17578h36.668c2.8789-0.003906 5.6914 0.83984 8.0898 2.4258 2.2188 1.4648 4.0039 3.5 5.168 5.8867l-13.32 15.555-5.4727-5.4727v0.003906c-1.7891-1.7852-4.6836-1.7852-6.4766 0l-2.4297 2.4297h0.003907c-0.44922 0.44531-0.44922 1.168 0 1.6133l0.89844 0.89844-2.7266 2.7266v0.003907c-0.21484 0.21094-0.33594 0.50391-0.33594 0.80469 0 0.30469 0.12109 0.59375 0.33594 0.80859l6.1992 6.1992c-1.0273-0.10938-2.0625-0.16406-3.0977-0.16406-3.9883-0.078125-7.9336 0.83984-11.477 2.6641-3.1602 1.7578-5.1133 4.2578-5.1133 7.0703s1.9531 5.3164 5.1133 7.0703v0.003907c3.5469 1.8242 7.4883 2.7383 11.477 2.6641 3.7031 0.054688 7.3711-0.72266 10.734-2.2734 2.1641-0.94922 3.9688-2.5625 5.1484-4.6055 0.34375 0.035156 0.68359-0.085937 0.92969-0.32812l2.7266-2.7266 0.89844 0.89844c0.44531 0.44531 1.168 0.44531 1.6172 0l2.4297-2.4297c1.7812-1.7891 1.7812-4.6836 0-6.4766zm-18.465-15.23c-0.89844-0.89062-2.3477-0.89062-3.2422 0l-1.6211 1.6211 20.09 20.098 1.6211-1.6211v-0.003906c0.89062-0.89453 0.89062-2.3438 0-3.2422l-10.508-10.508zm-14.879 2.6523c-0.30859-0.007813-0.60938 0.10937-0.83203 0.32422-0.22266 0.21484-0.34766 0.51172-0.34766 0.82031 0 0.30859 0.125 0.60547 0.34766 0.82031 0.22266 0.21484 0.52344 0.33203 0.83203 0.32031h3.6328c0.30859 0.011718 0.60938-0.10547 0.83203-0.32031 0.21875-0.21484 0.34375-0.51172 0.34375-0.82031 0-0.30859-0.125-0.60547-0.34375-0.82031-0.22266-0.21484-0.52344-0.33203-0.83203-0.32422z"
          fill-rule="evenodd"/>

</svg>