<svg xmlns="http://www.w3.org/2000/svg" viewBox="0 0 512 640" x="0px" y="0px">
    <g>
        <path d="M289.353,85.509A88.165,88.165,0,0,0,259.667,104h21.046A100.9,100.9,0,0,1,289.353,85.509Z"/>
        <path d="M352.99,160a185.3,185.3,0,0,0-5.6-40H292.61a185.3,185.3,0,0,0-5.6,40Z"/>
        <path d="M276.033,120H246.28a87.439,87.439,0,0,0-13.913,40h38.621A206.046,206.046,0,0,1,276.033,120Z"/>
        <path d="M270.988,176H232.367a87.439,87.439,0,0,0,13.913,40h29.753A206.046,206.046,0,0,1,270.988,176Z"/>
        <path d="M380.333,104a88.165,88.165,0,0,0-29.686-18.491A100.9,100.9,0,0,1,359.287,104Z"/>
        <path d="M341.739,103.27C335.5,88.7,327.368,80,320,80s-15.5,8.7-21.739,23.27c-.1.238-.2.489-.3.73h44.074C341.936,103.759,341.842,103.508,341.739,103.27Z"/>
        <path d="M264,384a8,8,0,0,1-7.761-9.94L269.754,320H184a48.054,48.054,0,0,1-48-48V188.3a128.892,128.892,0,0,0-65.849,71.429L35.544,352H72a8,8,0,0,1,8,8v16h40a8,8,0,0,1,8,8,48.012,48.012,0,0,1-48,48v8a40.045,40.045,0,0,0,40,40H320V345.165L268.706,382.47A8,8,0,0,1,264,384Z"/>
        <path d="M259.667,232a88.165,88.165,0,0,0,29.686,18.491A100.9,100.9,0,0,1,280.713,232Z"/>
        <path d="M369.012,160h38.621a87.439,87.439,0,0,0-13.913-40H363.967A206.046,206.046,0,0,1,369.012,160Z"/>
        <path d="M298.261,232.73C304.505,247.3,312.632,256,320,256s15.5-8.7,21.739-23.27c.1-.238.2-.489.3-.73H297.963C298.064,232.241,298.158,232.492,298.261,232.73Z"/>
        <path d="M363.967,216H393.72a87.439,87.439,0,0,0,13.913-40H369.012A206.046,206.046,0,0,1,363.967,216Z"/>
        <path d="M448,32H184a32.036,32.036,0,0,0-32,32V272a32.036,32.036,0,0,0,32,32h96a8,8,0,0,1,7.761,9.94L277.1,356.58l70.193-51.05A8.006,8.006,0,0,1,352,304h96a32.036,32.036,0,0,0,32-32V64A32.036,32.036,0,0,0,448,32ZM183.155,91.578l-14.31-7.156,16-32,14.31,7.156Zm17.69-7.156,16-32,14.31,7.156-16,32ZM320,272A104,104,0,1,1,424,168,104.118,104.118,0,0,1,320,272Zm95.155,11.578-14.31-7.156,16-32,14.31,7.156Zm32,0-14.31-7.156,16-32,14.31,7.156Z"/>
        <path d="M287.01,176a185.3,185.3,0,0,0,5.6,40h54.78a185.3,185.3,0,0,0,5.6-40Z"/>
        <path d="M350.647,250.491A88.165,88.165,0,0,0,380.333,232H359.287A100.9,100.9,0,0,1,350.647,250.491Z"/>
    </g>
</svg>