<svg xmlns="http://www.w3.org/2000/svg" version="1.1" viewBox="-5.0 -10.0 110.0 135.0">
    <path d="m15.457 91.199h27.656c0.57812 0 1.043-0.46875 1.043-1.043s-0.46484-1.043-1.043-1.043h-27.656c-2.7383 0-4.957-2.2188-4.957-4.957v-62.051c0.003906-0.48047 0.078125-0.95312 0.23047-1.4062h8.332c0.27734 0 0.54297-0.10938 0.73828-0.30469 0.19531-0.19531 0.30469-0.46094 0.30469-0.73828v-8.5195c0.47656-0.15625 0.97656-0.24219 1.4766-0.25h42.156c1.3242-0.011719 2.5977 0.50391 3.5391 1.4336 0.94141 0.93359 1.4688 2.1992 1.4727 3.5234v14.645c0 0.57812 0.46484 1.043 1.043 1.043 0.57422 0 1.0391-0.46484 1.0391-1.043v-14.645c0-3.8906-3.1523-7.043-7.0391-7.043h-42.18c-0.98828 0.011719-1.9648 0.22656-2.8633 0.63672h-0.050781c-0.77734 0.35156-1.4805 0.83594-2.0859 1.4375l-6.168 6.25h0.003907c-1.2969 1.3125-2.0195 3.082-2.0117 4.9258v62.105c0 3.8828 3.1406 7.0312 7.0195 7.043zm2.5938-78.805v6.25h-6.1133zm44.582 6.25h0.003907c0 0.27734-0.10938 0.54297-0.30469 0.73828-0.19531 0.19531-0.46094 0.30469-0.73828 0.30469h-33.406c-0.57422 0-1.043-0.46484-1.043-1.043 0-0.57422 0.46875-1.0391 1.043-1.0391h33.406c0.27734 0 0.54297 0.10938 0.74219 0.30859 0.19531 0.19531 0.30078 0.46484 0.30078 0.74219zm-1.043 10.02-33.402 0.003907c-0.57422 0-1.043-0.46875-1.043-1.043s0.46875-1.043 1.043-1.043h33.406c0.57422 0 1.043 0.46875 1.043 1.043s-0.46875 1.043-1.043 1.043zm-22.633 13.418v-0.050781c-3.4297-5.6523-10.785-7.4609-16.441-4.043-5.6602 3.4141-7.4883 10.766-4.0859 16.434 3.3984 5.668 10.746 7.5117 16.422 4.125 5.6758-3.3867 7.543-10.727 4.168-16.41zm-10.418-3.875h0.003907c3.1484 0.003907 6.1094 1.4922 7.9883 4.0234l-8.332 4.918-9.5547-0.003907c0.53906-5.0781 4.8203-8.9336 9.9297-8.9375zm-9.8945 11.023h8.8867v8.8867-0.003907c-4.6875-0.48828-8.3945-4.1953-8.8867-8.8828zm10.969 8.8867v-9.375l8.0195-4.7617h0.003907c1.3477 2.918 1.2031 6.3125-0.38672 9.1094-1.5938 2.793-4.4336 4.6523-7.6367 4.9844zm11.012 7.5078c0 0.27734-0.10938 0.54297-0.30469 0.73828-0.19531 0.19531-0.46094 0.30469-0.73828 0.30469h-22.914c-0.57812 0-1.043-0.46875-1.043-1.043s0.46484-1.043 1.043-1.043h22.914c0.27734 0 0.54297 0.10938 0.73828 0.30469 0.19531 0.19531 0.30469 0.46094 0.30469 0.73828zm0 8.1445c0 0.27734-0.10938 0.54297-0.30469 0.73828-0.19531 0.19531-0.46094 0.30469-0.73828 0.30469h-22.914c-0.57812 0-1.043-0.46484-1.043-1.043 0-0.57422 0.46484-1.0391 1.043-1.0391h22.914c0.57422 0 1.0391 0.45703 1.043 1.0312zm0 8.1445v0.003907c0 0.27344-0.10938 0.53906-0.30469 0.73438-0.19531 0.19531-0.46094 0.30469-0.73828 0.30469h-22.914c-0.57812 0-1.043-0.46484-1.043-1.0391 0-0.57812 0.46484-1.043 1.043-1.043h22.914c0.57422 0 1.0391 0.46094 1.043 1.0312zm43.918-45.789h-30.555c-3.8867 0-7.0391 3.1523-7.0391 7.043v40.988c0 3.8906 3.1523 7.043 7.0391 7.043h30.555c3.8867 0 7.0391-3.1523 7.0391-7.043v-40.988c0-1.8672-0.74219-3.6602-2.0625-4.9805-1.3203-1.3203-3.1094-2.0625-4.9766-2.0625zm4.957 48.031c0 2.7383-2.2188 4.957-4.957 4.957h-30.555c-2.7344-0.003906-4.9531-2.2227-4.957-4.957v-40.988c0-2.7383 2.2188-4.9609 4.957-4.9609h30.555c2.7383 0 4.957 2.2227 4.957 4.9609zm-7.5195-42.637h-24.531c-1.6367 0-2.9609 1.3242-2.9609 2.9609v5.6992-0.003907c0.007813 1.6328 1.3281 2.9492 2.9609 2.9492h24.531c1.6328 0 2.957-1.3242 2.957-2.957v-5.6875c0-0.78516-0.3125-1.5391-0.86719-2.0938-0.55469-0.55469-1.3047-0.86719-2.0898-0.86719zm0.875 8.6562c-0.007813 0.48047-0.39453 0.87109-0.875 0.875h-24.531c-0.48438 0-0.875-0.39062-0.875-0.875v-5.6953c-0.003907-0.23438 0.085937-0.45703 0.25-0.625 0.16797-0.16406 0.39062-0.25391 0.625-0.25h24.531c0.23047 0 0.45312 0.089843 0.61719 0.25391 0.16406 0.16406 0.25781 0.38672 0.25781 0.62109zm-0.875 6.1992h-24.531c-0.79297 0-1.5508 0.31641-2.1094 0.88281-0.55469 0.5625-0.86328 1.3242-0.85156 2.1172v23.387c0 1.6328 1.3242 2.957 2.9609 2.957h24.531c1.6328 0 2.957-1.3242 2.957-2.957v-23.387c0.011719-0.79297-0.29688-1.5547-0.85156-2.1172-0.55469-0.56641-1.3164-0.88281-2.1055-0.88281zm0.875 3v10.625h-12.105v-11.543h11.23c0.23828 0.003907 0.46484 0.10156 0.62891 0.27344 0.16406 0.17578 0.25391 0.40625 0.24609 0.64453zm-25.406-0.875h11.219v11.5h-12.094v-10.625c-0.011719-0.23828 0.074219-0.47266 0.23828-0.64453 0.16797-0.17578 0.39453-0.27344 0.63672-0.27344zm-0.875 24.301v-10.719h12.094v11.555h-11.219c-0.23438 0-0.45703-0.09375-0.62109-0.25781-0.16406-0.16406-0.25391-0.38672-0.25391-0.61719zm25.406 0.875h-11.23v-11.594h12.105v10.68c-0.007813 0.48047-0.39453 0.86719-0.875 0.875zm-9.375-19.98v0.003907c0-0.57812 0.46484-1.043 1.0391-1.043h5.6172c0.57422 0 1.0391 0.46484 1.0391 1.043 0 0.57422-0.46484 1.0391-1.0391 1.0391h-5.5742c-0.28516 0-0.55469-0.11328-0.75-0.32031-0.19922-0.20312-0.30469-0.47656-0.29297-0.76172zm7.6992 12.156-0.003907 0.003907c0 0.27344-0.10938 0.53906-0.30469 0.73438-0.19531 0.19531-0.46094 0.30469-0.73438 0.30469h-5.5742c-0.57422 0-1.043-0.46484-1.043-1.0391 0-0.57812 0.46875-1.043 1.043-1.043h5.6133c0.5625 0 1.0195 0.44141 1.043 1zm0 4.6055h-0.003907c0 0.27734-0.10938 0.54297-0.30469 0.73828-0.19531 0.19531-0.46094 0.30469-0.73438 0.30469h-5.5742c-0.57422 0-1.043-0.46484-1.043-1.043 0-0.57422 0.46875-1.0391 1.043-1.0391h5.6133c0.5625 0 1.0195 0.44141 1.043 1zm-21.379-16.801c0-0.57422 0.46875-1.043 1.043-1.043h1.7695v-1.7578c0-0.57812 0.46875-1.043 1.043-1.043s1.043 0.46484 1.043 1.043v1.7617l1.8008-0.003907c0.57422 0 1.043 0.46875 1.043 1.043s-0.46875 1.043-1.043 1.043h-1.8008v1.7578c0 0.57812-0.46875 1.043-1.043 1.043s-1.043-0.46484-1.043-1.043v-1.7578h-1.7695c-0.57422 0-1.043-0.46875-1.043-1.043zm6.5742 16.02c0.19531 0.19531 0.30859 0.46484 0.30859 0.74219 0 0.27734-0.11328 0.54297-0.30859 0.73828s-0.46094 0.30469-0.73828 0.30078c-0.27734 0.003907-0.54297-0.10547-0.74219-0.30078l-1.2383-1.25-1.25 1.25c-0.41016 0.40625-1.0703 0.40234-1.4727-0.003906-0.40625-0.41016-0.40625-1.0703 0.003906-1.4766l1.2383-1.25-1.2383-1.2383c-0.19531-0.19531-0.30859-0.46094-0.30859-0.73828 0-0.27734 0.11328-0.54688 0.30859-0.74219 0.40625-0.40234 1.0625-0.40234 1.4688 0l1.25 1.25 1.2383-1.25c0.41016-0.40625 1.0703-0.40625 1.4805 0 0.41016 0.41016 0.41016 1.0703 0 1.4805l-1.25 1.2383z"/>
</svg>