<svg xmlns="http://www.w3.org/2000/svg" version="1.1" viewBox="-5.0 -10.0 110.0 135.0">
    <path d="m78.543 44.426c0.27344 0 0.53906 0.10938 0.73438 0.30469 0.19531 0.19531 0.30469 0.46094 0.30469 0.73828v5.6875c0 0.57422-0.46484 1.043-1.0391 1.043-0.57812 0-1.043-0.46875-1.043-1.043v-5.6875c0-0.57422 0.46484-1.043 1.043-1.043zm0 32.457v0.003907c-0.57812 0-1.043 0.46484-1.043 1.0391v3.3242h-23.887c-0.57422 0-1.0391 0.46484-1.0391 1.043 0 0.57422 0.46484 1.0391 1.0391 1.0391h24.93c0.27344 0 0.53906-0.10938 0.73438-0.30469 0.19531-0.19531 0.30469-0.46094 0.30469-0.73438v-4.3672c0-0.27344-0.10938-0.53906-0.30469-0.73438-0.19531-0.19531-0.46094-0.30469-0.73438-0.30469zm8.957-12.863-12.031-8.6758c-0.31641-0.22656-0.73438-0.25781-1.0781-0.078125-0.34766 0.17578-0.56641 0.53125-0.56641 0.92188v3.125h-19.793c-0.57422 0-1.043 0.46484-1.043 1.043 0 0.57422 0.46875 1.0391 1.043 1.0391h20.832c0.27734 0 0.54297-0.10938 0.73828-0.30469 0.19531-0.19531 0.30469-0.46094 0.30469-0.73438v-2.082l9.168 6.6367-9.168 6.6367v-2.0898c0-0.27344-0.10938-0.53906-0.30469-0.73438-0.19531-0.19531-0.46094-0.30469-0.73828-0.30469h-10.875c-0.57422 0-1.0391 0.46484-1.0391 1.0391 0 0.57812 0.46484 1.043 1.0391 1.043h9.832v3.125h0.003907c-0.003907 0.39062 0.21484 0.74609 0.5625 0.92578 0.14844 0.074219 0.3125 0.11328 0.47656 0.11719 0.21875-0.003907 0.42969-0.070313 0.60547-0.19922l12.031-8.7617c0.26953-0.19531 0.42969-0.50781 0.42578-0.84375 0.003907-0.33203-0.15625-0.64453-0.42578-0.84375zm-30.344-22.645c0.57422 0 1.043-0.46484 1.043-1.043 0-0.57422-0.46875-1.0391-1.043-1.0391h-17.301c-0.57812 0-1.043 0.46484-1.043 1.0391 0 0.57812 0.46484 1.043 1.043 1.043zm-26.457 0h4.168-0.003907c0.57812 0 1.043-0.46484 1.043-1.043 0-0.57422-0.46484-1.0391-1.043-1.0391h-4.168 0.003907c-0.57812 0-1.043 0.46484-1.043 1.0391 0 0.57812 0.46484 1.043 1.043 1.043zm39.457 2.8867h-8.7617c-0.57422 0-1.0391 0.46484-1.0391 1.0391 0 0.57812 0.46484 1.043 1.0391 1.043h8.7617c0.57422 0 1.043-0.46484 1.043-1.043 0-0.57422-0.46875-1.0391-1.043-1.0391zm-12.676 1.043v-0.003907c0-0.27344-0.10938-0.53906-0.30469-0.73438-0.19531-0.19531-0.46094-0.30469-0.73828-0.30469h-25.738c-0.57812 0-1.043 0.46484-1.043 1.0391 0 0.57812 0.46484 1.043 1.043 1.043h25.738c0.27734 0 0.54297-0.10938 0.73828-0.30469 0.19531-0.19531 0.30469-0.46094 0.30469-0.73828zm-12.688 5.9961h25.363c0.57422 0 1.043-0.46484 1.043-1.0391 0-0.57812-0.46875-1.043-1.043-1.043h-25.363c-0.57812 0-1.043 0.46484-1.043 1.043 0 0.57422 0.46484 1.0391 1.043 1.0391zm-14.125-2.082c-0.57812 0-1.043 0.46484-1.043 1.043 0 0.57422 0.46484 1.0391 1.043 1.0391h7.9258c0.57422 0 1.043-0.46484 1.043-1.0391 0-0.57812-0.46875-1.043-1.043-1.043zm31.344-27.293c0.27344 0 0.53906-0.10938 0.73438-0.30469 0.19531-0.19531 0.30469-0.46094 0.30469-0.73438v-6.3867h6.3867c0.57422 0 1.043-0.46484 1.043-1.043 0-0.57422-0.46875-1.0391-1.043-1.0391h-7.3945c-0.57812 0-1.043 0.46484-1.043 1.0391v7.4297c0 0.27344 0.10938 0.53906 0.30469 0.73438 0.19531 0.19531 0.46094 0.30469 0.73828 0.30469zm28.5-9.5117-7.3984 0.003907c-0.57422 0-1.0391 0.46484-1.0391 1.0391 0 0.57812 0.46484 1.043 1.0391 1.043h6.3867v6.3867c0 0.57422 0.46484 1.0391 1.043 1.0391 0.57422 0 1.0391-0.46484 1.0391-1.0391v-7.4297c0-0.27344-0.10938-0.53906-0.30469-0.73438-0.19531-0.19531-0.46094-0.30469-0.73438-0.30469zm-29.512 27.918c0 0.27734 0.10938 0.54297 0.30469 0.73828 0.19531 0.19531 0.46094 0.30469 0.73828 0.30469h7.4258c0.57422 0 1.043-0.46484 1.043-1.043 0-0.57422-0.46875-1.0391-1.043-1.0391h-6.3867v-6.3867c0-0.57422-0.46484-1.043-1.0391-1.043-0.57812 0-1.043 0.46875-1.043 1.043zm29.543-8.4688c-0.57812 0-1.043 0.46875-1.043 1.043v6.3867h-6.3867c-0.57422 0-1.0391 0.46484-1.0391 1.0391 0 0.57812 0.46484 1.043 1.0391 1.043h7.4297c0.27344 0 0.53906-0.10938 0.73438-0.30469 0.19531-0.19531 0.30469-0.46094 0.30469-0.73828v-7.4258c0-0.27734-0.10938-0.54297-0.30469-0.73828-0.19531-0.19531-0.46094-0.30469-0.73438-0.30469zm-14.25 6.3672c-4.5859 0-8.7188-2.7617-10.473-6.9961-1.7539-4.2383-0.78516-9.1094 2.457-12.352 3.2422-3.2422 8.1172-4.2109 12.352-2.457 4.2344 1.7539 6.9961 5.8867 6.9961 10.469-0.003906 6.2578-5.0781 11.328-11.332 11.336zm9.25-11.332v-0.003907c0-3.7383-2.2539-7.1133-5.7109-8.543-3.457-1.4336-7.4375-0.64062-10.082 2.0039s-3.4375 6.625-2.0039 10.082c1.4297 3.4531 4.8047 5.707 8.5469 5.707 5.1055-0.003906 9.2422-4.1406 9.25-9.25zm-8.207 0-0.003907-6.0117c0-0.57812-0.46484-1.043-1.0391-1.043-0.57812 0-1.043 0.46484-1.043 1.043v6.3555-0.003907c0 0.23047 0.078125 0.45312 0.21875 0.63672l3.125 4.0625c0.35156 0.45312 1.0039 0.53906 1.457 0.1875 0.21875-0.17188 0.35547-0.42578 0.38281-0.70312 0.03125-0.27344-0.050782-0.55078-0.22656-0.76562zm-29.742 48.426c-0.003906 0.81641-0.31641 1.6016-0.875 2.1953 0.78516 0.83594 1.0664 2.0273 0.73828 3.125-0.32812 1.1016-1.2188 1.9414-2.332 2.2109 0.17188 0.39453 0.26172 0.82422 0.26172 1.2578-0.007813 1.7852-1.457 3.2305-3.2422 3.2305h-12.145l-6.1445-0.44922c-0.53906-0.039062-1.0703-0.13672-1.5859-0.28906l-3.3125-1.043c-0.32031 1.1602-1.375 1.9648-2.582 1.9688h-6.918c-0.57422 0-1.0391-0.46484-1.0391-1.043 0-0.57422 0.46484-1.0391 1.0391-1.0391h6.918c0.16016 0 0.3125-0.058594 0.42578-0.17188 0.11328-0.10938 0.17969-0.26562 0.17969-0.42188v-15.199c0-0.33203-0.27344-0.60547-0.60547-0.60547h-6.918c-0.57422 0-1.0391-0.46484-1.0391-1.0391 0-0.57812 0.46484-1.043 1.0391-1.043h6.918c1.1367 0 2.1484 0.71094 2.5312 1.7812 0.80078-0.64062 1.5547-1.3359 2.2617-2.082-0.054688-0.12109-0.082031-0.24609-0.085938-0.375v-32.961c0.003907-0.27734 0.11328-0.54297 0.3125-0.73828l8.043-7.875c0.19531-0.19141 0.45703-0.30078 0.73047-0.30078h27.32c0.57812 0 1.043 0.46484 1.043 1.0391 0 0.57812-0.46484 1.043-1.043 1.043h-26.895l-5.4062 5.3008h31.812c0.57422 0 1.043 0.46875 1.043 1.043s-0.46875 1.043-1.043 1.043h-33.832v30.695c1.9492-2.1445 4.168-4.75 6.0117-7.207h-0.003907c0.3125-0.40625 0.875-0.52734 1.3242-0.28125 1.3047 0.72656 2.2617 1.9492 2.6562 3.3906 0.39062 1.4414 0.18359 2.9766-0.57422 4.2656l-1.3008 2.1875 10.27-0.21875c1.0039-0.023438 1.9727 0.35156 2.6992 1.043 0.71484 0.69922 1.1172 1.6641 1.1133 2.6641-0.003906 0.58594-0.15234 1.1602-0.42578 1.6797 1.5547 0.27734 2.6758 1.6406 2.6562 3.2188zm-2.082 4.3945c0-0.63672-0.51953-1.1562-1.1562-1.1562h-13.656c-0.57812 0-1.043-0.46484-1.043-1.043 0-0.57422 0.46484-1.0391 1.043-1.0391h13.656c0.32422 0.03125 0.64453-0.078125 0.88672-0.29688 0.24219-0.21875 0.37891-0.53125 0.37891-0.85547s-0.13672-0.63672-0.37891-0.85547c-0.24219-0.21875-0.5625-0.32812-0.88672-0.29688h-2.6875l-10.418 0.09375c-0.57422 0-1.043-0.46484-1.043-1.0391 0-0.57812 0.46875-1.043 1.043-1.043h10.5c0.86719-0.042969 1.5508-0.75391 1.5625-1.625 0-0.44531-0.17969-0.87109-0.5-1.1758-0.28906-0.33594-0.70312-0.53516-1.1445-0.55469l-12.145 0.25h-0.003907c-0.37891 0.027344-0.73828-0.17188-0.91406-0.50781-0.1875-0.32422-0.1875-0.71875 0-1.043l2.2383-3.8008c0.82422-1.3945 0.55859-3.1719-0.63672-4.2617-3.293 4.168-8.332 10.188-11.145 11.582v12.43l3.8555 1.125c0.37109 0.11328 0.75391 0.18359 1.1445 0.20703l6.0625 0.45703h12.02c0.32422 0.03125 0.64844-0.074219 0.89062-0.29297 0.23828-0.21875 0.375-0.53125 0.375-0.85547 0-0.32812-0.13672-0.63672-0.375-0.85547-0.24219-0.21875-0.56641-0.32812-0.89062-0.29688h-11.457c-0.57422 0-1.043-0.46484-1.043-1.043 0-0.57422 0.46875-1.0391 1.043-1.0391h13.668c0.30859 0 0.60156-0.125 0.82031-0.34375s0.33594-0.51562 0.33594-0.82422z"/>
</svg>