<svg xmlns="http://www.w3.org/2000/svg" xmlns:xlink="http://www.w3.org/1999/xlink" version="1.1" x="0px" y="0px"
     viewBox="0 0 64 80" style="enable-background:new 0 0 64 64;" xml:space="preserve"><path d="M18,4H5C4.447,4,4,4.447,4,5v10c0,0.553,0.447,1,1,1h13c0.553,0,1-0.447,1-1V5C19,4.447,18.553,4,18,4z M17,14H6V6h11V14z"/>
    <rect x="5" y="39" width="14" height="2"/>
    <rect x="5" y="35" width="14" height="2"/>
    <rect x="5" y="31" width="14" height="2"/>
    <path d="M46.707,47.293l-1.414,1.414l3,3C48.488,51.902,48.744,52,49,52s0.512-0.098,0.707-0.293l7-7l-1.414-1.414L49,49.586  L46.707,47.293z"/>
    <path d="M63,37c-2.241,0-4.674-0.685-7-1.872V1c0-0.553-0.447-1-1-1H1C0.447,0,0,0.447,0,1v44c0,0.553,0.447,1,1,1h35.747  c1.601,8.009,5.809,13.898,12.757,17.868C49.657,63.956,49.829,64,50,64s0.343-0.044,0.496-0.132C59.583,58.676,64,50.214,64,38  C64,37.447,63.553,37,63,37z M23,2h10v13.132l-1.445-0.964c-0.336-0.225-0.773-0.225-1.109,0L28,15.798l-2.445-1.63  c-0.336-0.225-0.773-0.225-1.109,0L23,15.132V2z M2,44V2h19v15c0,0.369,0.203,0.708,0.528,0.882c0.324,0.174,0.72,0.154,1.026-0.05  L25,16.202l2.445,1.63c0.336,0.225,0.773,0.225,1.109,0L31,16.202l2.445,1.63C33.612,17.943,33.806,18,34,18  c0.162,0,0.324-0.039,0.472-0.118C34.797,17.708,35,17.369,35,17V2h19v31.962c-1.165-0.771-2.281-1.657-3.293-2.669  c-0.391-0.391-1.023-0.391-1.414,0C45.772,34.813,41.062,37,37,37c-0.553,0-1,0.447-1,1c0,2.114,0.142,4.108,0.408,6H2z M50,61.842  c-7.84-4.69-11.77-12.188-11.99-22.88c4.044-0.301,8.487-2.364,11.99-5.578c3.503,3.214,7.946,5.277,11.99,5.578  C61.77,49.653,57.84,57.151,50,61.842z"/>
    </svg>